<svg width="421" height="365" viewBox="0 0 421 365" fill="none" xmlns="http://www.w3.org/2000/svg">
<path d="M234.447 337.304C219.931 331.347 214.146 317.185 212.1 303.994C211.755 301.804 211.031 299.527 211.856 297.424C212.681 295.322 215.224 293.606 217.666 294.198C219.695 294.687 220.882 296.453 222.238 297.848C224.041 299.729 226.424 301.126 229.108 301.877C230.86 302.366 232.939 302.52 234.379 301.527C236.35 300.162 236.063 297.519 235.659 295.344C234.834 291.309 234.026 287.275 233.234 283.24C232.664 281.088 232.496 278.869 232.737 276.67C233.108 274.48 234.463 272.291 236.737 271.385C239.01 270.48 242.201 271.217 243.119 273.276C243.39 274.161 243.592 275.061 243.725 275.97C243.97 276.868 244.652 277.795 245.687 277.904C246.723 278.014 247.624 277.247 248.255 276.495C250.411 273.918 251.623 270.83 252.718 267.772C253.813 264.713 254.84 261.596 256.726 258.851C258.612 256.106 261.492 253.741 265.053 253.011C268.615 252.281 272.825 253.668 274.315 256.595C275.806 259.523 274.366 262.946 272.631 265.764C269.997 269.937 266.682 273.758 262.788 277.108C262.012 277.645 261.452 278.381 261.189 279.211C260.928 280.744 262.797 281.956 264.557 282.189C266.527 282.452 268.531 281.985 270.526 281.897C272.522 281.81 274.787 282.248 275.848 283.744C277.304 285.817 275.612 288.467 273.802 290.314C270.166 293.994 265.828 297.105 260.978 299.512C259.244 300.366 257.4 301.169 256.128 302.512C254.857 303.856 254.343 305.943 255.539 307.345C256.734 308.747 259.151 308.9 261.02 308.301C262.889 307.703 264.447 306.542 266.173 305.673C269.406 304.038 273.903 303.586 276.622 305.849C277.471 306.64 278.095 307.591 278.448 308.627C278.8 309.663 278.87 310.756 278.652 311.82C278.204 313.939 277.267 315.957 275.898 317.755C271.538 324.254 265.268 329.634 257.728 333.348C250.192 336.925 242.9 338.669 234.455 337.312" fill="#F5F5F5"/>
<path d="M236.745 328.5C237.862 320.987 239.475 313.536 241.578 306.184L243.195 300.395C243.725 298.489 244.256 296.606 244.879 294.796C246.138 291.321 247.616 287.909 249.308 284.576C250.899 281.378 252.541 278.385 254.099 275.604C255.656 272.823 257.18 270.253 258.679 267.968C261.019 264.344 263.688 260.887 266.661 257.631C267.714 256.478 268.564 255.609 269.145 255.025C269.423 254.748 269.65 254.529 269.81 254.361C269.97 254.193 270.046 254.142 270.055 254.149C269.994 254.233 269.926 254.314 269.853 254.39L269.213 255.076C268.657 255.675 267.832 256.536 266.805 257.726C263.896 261.014 261.276 264.487 258.965 268.114C257.492 270.406 255.993 272.976 254.444 275.757C252.895 278.538 251.278 281.531 249.703 284.729C248.027 288.063 246.565 291.474 245.325 294.949C244.677 296.752 244.155 298.599 243.641 300.526L242.024 306.322C239.926 313.659 238.304 321.093 237.166 328.587" fill="#E0E0E0"/>
<path d="M245.022 294.767C244.839 294.483 244.695 294.182 244.593 293.869C244.34 293.292 244.012 292.409 243.624 291.38C242.85 289.263 241.89 286.306 240.846 283.051C239.802 279.795 238.8 276.853 237.983 274.758C237.579 273.707 237.242 272.852 237.006 272.276C236.865 271.976 236.755 271.666 236.678 271.349C236.881 271.621 237.048 271.912 237.175 272.217C237.469 272.779 237.848 273.619 238.294 274.656C239.195 276.743 240.248 279.671 241.3 282.941C242.353 286.211 243.237 289.073 243.944 291.292C244.273 292.3 244.542 293.146 244.786 293.825C244.896 294.133 244.975 294.448 245.022 294.767Z" fill="#E0E0E0"/>
<path d="M276.302 284.795C275.895 284.942 275.472 285.052 275.039 285.123C274.197 285.306 273.043 285.569 271.595 285.934C268.69 286.664 264.725 287.744 260.405 289.131C256.086 290.518 252.238 291.927 249.459 293.007C248.078 293.54 246.975 294 246.209 294.314C245.824 294.496 245.421 294.647 245.005 294.767C245.353 294.534 245.728 294.333 246.125 294.168C246.866 293.81 247.952 293.314 249.316 292.708C252.036 291.555 255.875 290.102 260.203 288.708C263.897 287.51 267.66 286.479 271.477 285.62C272.942 285.284 274.138 285.065 274.972 284.926C275.409 284.847 275.855 284.803 276.302 284.795Z" fill="#E0E0E0"/>
<path d="M237.04 327.938C236.932 327.842 236.836 327.737 236.753 327.624L236.004 326.697C235.356 325.879 234.455 324.689 233.368 323.2C231.179 320.222 228.316 316.024 225.226 311.352C222.136 306.68 219.332 302.468 217.202 299.46L214.676 295.891L214.002 294.92C213.913 294.812 213.843 294.694 213.792 294.569C213.792 294.569 213.901 294.664 214.078 294.876C214.255 295.088 214.533 295.431 214.828 295.81C215.476 296.621 216.377 297.811 217.472 299.307C219.652 302.285 222.524 306.476 225.614 311.148C228.704 315.82 231.508 320.032 233.63 323.047L236.156 326.609C236.425 326.996 236.652 327.339 236.829 327.58C236.919 327.689 236.99 327.81 237.04 327.938Z" fill="#E0E0E0"/>
<path d="M277.607 309.651C277.489 309.741 277.355 309.815 277.211 309.87L276.041 310.411L271.696 312.374C268.025 314.039 262.99 316.382 257.433 318.944C251.876 321.507 246.815 323.85 243.119 325.441C241.266 326.237 239.751 326.901 238.707 327.288L237.444 327.77C237.305 327.834 237.158 327.883 237.006 327.916C237.126 327.828 237.259 327.755 237.402 327.697L238.58 327.157L242.925 325.186C246.588 323.529 251.623 321.185 257.18 318.616C262.737 316.046 267.806 313.717 271.494 312.126C273.347 311.33 274.862 310.666 275.906 310.279L277.119 309.797C277.272 309.727 277.437 309.678 277.607 309.651Z" fill="#E0E0E0"/>
<path d="M129.163 180.609C129.163 180.609 119.16 181.814 124.776 200.809C130.392 219.803 135.158 229.6 135.158 229.6C135.158 229.6 135.907 233.899 131.908 233.768C127.908 233.637 119.749 230.848 116.979 234.564C114.116 238.447 116.625 243.119 122.873 248.018C129.121 252.916 142.441 264.078 143.637 265.092C144.832 266.107 145.708 268.195 142.963 268.48C140.218 268.764 120.751 266.786 120.229 274.852C119.707 282.919 139.772 294.073 141.936 295.329C144.1 296.585 144.462 297.563 143.957 298.658C143.451 299.753 137.002 298.548 131.436 298.176C125.87 297.804 119.337 298.234 119.48 302.906C119.623 307.578 130.165 319.404 160.898 328.194L175.456 331.457L186.208 322.273C207.848 301.403 210.214 286.605 207.662 282.488C205.111 278.371 199.242 280.817 194.578 283.532C189.913 286.248 185.029 290.102 183.985 289.372C182.941 288.642 182.672 287.635 183.834 285.613C184.996 283.591 196.017 265.268 190.932 258.493C185.846 251.719 170.084 261.807 167.558 262.734C165.032 263.662 164.577 261.457 165.032 260.085C165.487 258.712 170.623 243.295 173.267 236.323C175.911 229.352 175.405 224.227 170.69 222.095C166.143 220.044 160.679 226.001 157.277 227.84C153.875 229.68 152.074 225.65 152.074 225.65C152.074 225.65 150.592 215.102 144.58 196.195C138.568 177.288 128.977 180.675 128.977 180.675" fill="#EBEBEB"/>
<path d="M175.448 334.595C171.095 320.725 163.828 295.905 157.471 274.597C151.114 253.288 145.338 234.074 141.061 220.161C138.922 213.211 137.188 207.59 136.009 203.684C135.419 201.75 134.956 200.239 134.636 199.202L134.283 198.034C134.207 197.772 134.182 197.633 134.182 197.633C134.182 197.633 134.241 197.757 134.333 198.02C134.426 198.283 134.552 198.684 134.721 199.18C135.066 200.217 135.563 201.713 136.186 203.641C137.449 207.517 139.234 213.131 141.406 220.08C145.759 233.95 151.594 253.23 157.951 274.494C164.308 295.759 171.516 320.601 175.793 334.515" fill="#E0E0E0"/>
<path d="M128.211 238.899C128.547 239.02 128.869 239.169 129.171 239.345C129.769 239.651 130.627 240.119 131.697 240.703C133.793 241.878 136.648 243.564 139.755 245.469L147.686 250.375L150.103 251.835C150.408 251.999 150.69 252.193 150.945 252.412C150.605 252.293 150.281 252.143 149.977 251.966C149.379 251.66 148.52 251.193 147.451 250.601C145.371 249.411 142.542 247.681 139.435 245.783L131.461 240.929L129.036 239.469C128.738 239.305 128.462 239.114 128.211 238.899Z" fill="#E0E0E0"/>
<path d="M152.166 251.807C152.057 251.748 155.804 246.5 160.527 240.083C165.251 233.666 169.183 228.512 169.293 228.571C169.402 228.629 165.655 233.885 160.923 240.302C156.191 246.719 152.276 251.851 152.166 251.807Z" fill="#E0E0E0"/>
<path d="M160.232 284.86C160.465 284.608 160.734 284.383 161.032 284.189L163.297 282.466C165.209 281.006 167.844 278.991 170.656 276.67C173.469 274.348 175.944 272.18 177.712 270.596C178.554 269.866 179.245 269.216 179.809 268.72C180.064 268.475 180.346 268.253 180.651 268.056C180.464 268.335 180.238 268.592 179.977 268.822C179.523 269.297 178.841 269.968 177.982 270.786C176.298 272.428 173.839 274.64 171.01 276.962C168.181 279.283 165.52 281.283 163.55 282.685C162.556 283.415 161.748 283.94 161.175 284.313C160.885 284.525 160.569 284.708 160.232 284.86Z" fill="#E0E0E0"/>
<path d="M135.604 277.319C135.944 277.355 136.278 277.426 136.598 277.531L139.267 278.261C141.507 278.882 144.597 279.765 147.999 280.758C151.4 281.75 154.474 282.685 156.688 283.378L159.307 284.211C159.633 284.299 159.946 284.419 160.241 284.568C159.901 284.538 159.567 284.47 159.248 284.364L156.579 283.634C154.339 283.013 151.249 282.13 147.847 281.13C144.445 280.13 141.372 279.203 139.158 278.517L136.539 277.677C136.21 277.595 135.896 277.474 135.604 277.319Z" fill="#E0E0E0"/>
<path d="M138.45 307.286C138.883 307.342 139.309 307.435 139.722 307.564L143.14 308.469C146.02 309.25 149.986 310.352 154.364 311.6C158.742 312.849 162.691 313.988 165.546 314.842L168.914 315.864C169.333 315.98 169.741 316.124 170.135 316.294C169.699 316.239 169.27 316.146 168.855 316.017L165.436 315.112C162.557 314.331 158.591 313.228 154.212 311.98C149.834 310.732 145.885 309.586 143.039 308.739L139.671 307.71C139.25 307.601 138.842 307.459 138.45 307.286Z" fill="#E0E0E0"/>
<path d="M169.444 315.893C169.741 315.577 170.071 315.286 170.429 315.024L173.216 312.754C175.566 310.834 178.799 308.169 182.276 305.14C185.754 302.11 188.827 299.3 191.033 297.256L193.643 294.832C193.951 294.523 194.286 294.235 194.645 293.971C194.4 294.314 194.118 294.637 193.803 294.934C193.231 295.54 192.372 296.394 191.277 297.445C189.13 299.548 186.099 302.395 182.605 305.424C179.11 308.454 175.869 311.096 173.444 312.965C172.231 313.892 171.246 314.644 170.547 315.155C170.204 315.427 169.835 315.674 169.444 315.893Z" fill="#E0E0E0"/>
<path d="M85.716 67.3356L77.4981 65.1456C77.4981 65.1456 75.3426 71.1316 68.135 69.2993C66.7397 68.9662 65.4983 68.2653 64.5826 67.2935C63.6669 66.3218 63.1223 65.1273 63.0241 63.8754C62.9162 62.8197 63.1006 61.7569 63.5619 60.7755C64.0232 59.794 64.7482 58.9222 65.6764 58.2325C67.7898 56.6119 71.4946 55.6264 76.7234 57.9697L82.508 41.9097L74.3827 39.7197L71.0147 49.1294C71.0147 49.1294 58.6878 48.5965 54.7725 59.4808C51.0256 69.8979 60.9275 75.2342 65.5417 76.4825C69.0444 77.4315 81.346 79.9427 85.716 67.3356Z" fill="#F5F5F5"/>
<path d="M75.4827 36.3764L83.7295 38.6074L86.1323 31.9315L77.8855 29.7005L75.4827 36.3764Z" fill="#F5F5F5"/>
<path d="M108.391 49.2016L111.683 48.4716C111.583 48.1475 111.558 47.8091 111.612 47.4766C111.665 47.1442 111.795 46.8244 111.994 46.5364C112.192 46.2483 112.456 45.9978 112.768 45.7998C113.081 45.6018 113.436 45.4603 113.813 45.3837C114.362 45.2402 114.948 45.2481 115.491 45.4063C116.035 45.5646 116.507 45.8654 116.845 46.267C117.131 46.6005 117.322 46.988 117.402 47.3978C117.483 47.8076 117.45 48.2281 117.308 48.6249C116.996 49.552 115.994 50.5594 113.67 50.7273L115.632 57.1586L118.882 56.4286L117.737 52.6618C118.97 52.0173 119.923 51.0392 120.451 49.8783C120.979 48.7174 121.052 47.4382 120.659 46.2378C119.396 42.0622 114.765 42.0841 112.938 42.5002C111.523 42.7849 106.799 44.1792 108.391 49.2016Z" fill="#EBEBEB"/>
<path d="M120.029 57.3671L116.713 58.1377L117.543 60.8214L120.859 60.0508L120.029 57.3671Z" fill="#EBEBEB"/>
<path d="M380.196 123.086L383.396 124.086C383.53 123.772 383.736 123.484 384 123.24C384.264 122.996 384.582 122.8 384.936 122.664C385.289 122.528 385.67 122.454 386.056 122.448C386.442 122.441 386.826 122.502 387.185 122.626C387.724 122.776 388.196 123.067 388.537 123.459C388.877 123.851 389.07 124.325 389.088 124.816C389.108 125.234 389.013 125.651 388.811 126.032C388.609 126.413 388.305 126.746 387.926 127.006C387.084 127.612 385.577 127.94 383.556 126.933L380.937 133.189L384.103 134.182L385.636 130.532C387.073 130.609 388.499 130.275 389.696 129.581C390.893 128.888 391.795 127.873 392.262 126.692C393.946 122.633 390.149 120.377 388.355 119.815C386.983 119.348 382.183 118.173 380.196 123.086Z" fill="#EBEBEB"/>
<path d="M383.63 135.45L380.416 134.44L379.329 137.042L382.543 138.051L383.63 135.45Z" fill="#EBEBEB"/>
<path d="M40.635 154.855L47.371 152.592C47.371 152.592 45.1818 147.664 51.0505 145.598C52.1737 145.186 53.4167 145.087 54.6081 145.313C55.7994 145.539 56.8805 146.08 57.7023 146.861C58.4015 147.511 58.9138 148.294 59.1977 149.148C59.4815 150.002 59.5289 150.902 59.3358 151.774C58.9148 153.804 57.0624 156.154 52.1872 156.965L58.0812 170.199L64.8172 167.966L61.365 160.213C61.365 160.213 69.785 154.972 65.836 145.993C62.0049 137.408 52.2041 138.386 48.4403 139.649C45.5354 140.62 35.9029 144.54 40.635 154.855Z" fill="#F5F5F5"/>
<path d="M66.0932 170.66L59.2969 172.93L61.7427 178.434L68.5391 176.164L66.0932 170.66Z" fill="#F5F5F5"/>
<path d="M382.832 177.127L378.033 178.726C378.033 178.726 379.582 182.222 375.422 183.682C374.626 183.971 373.746 184.04 372.903 183.881C372.06 183.722 371.293 183.341 370.707 182.792C370.212 182.331 369.849 181.776 369.649 181.171C369.448 180.566 369.416 179.928 369.554 179.31C369.857 177.85 371.17 176.214 374.606 175.66L370.48 166.25L365.731 167.834L368.173 173.331C366.444 174.477 365.199 176.084 364.626 177.904C364.054 179.724 364.188 181.657 365.007 183.405C367.71 189.486 374.631 188.8 377.325 187.902C379.363 187.208 386.183 184.434 382.832 177.127Z" fill="#F5F5F5"/>
<path d="M364.792 165.927L369.608 164.318L367.877 160.422L363.061 162.031L364.792 165.927Z" fill="#F5F5F5"/>
<path d="M396.388 338.552C396.388 338.662 313.156 338.742 210.508 338.742C107.86 338.742 24.6113 338.662 24.6113 338.552C24.6113 338.443 107.826 338.362 210.508 338.362C313.19 338.362 396.388 338.45 396.388 338.552Z" fill="#263238"/>
<path d="M78.0029 319.594C78.8449 316.908 76.7652 314.214 74.4918 312.294C72.2184 310.375 69.4987 308.608 68.3115 306.031C66.3918 301.855 68.9683 296.453 65.7013 292.971C63.7731 290.927 60.3209 290.241 58.6117 288.051C57.8214 286.844 57.2988 285.519 57.0708 284.146C55.254 277.21 51.3192 270.826 45.6786 265.662C45.2983 271.84 46.8427 277.992 50.1496 283.474C51.4715 285.664 53.105 287.796 53.5176 290.241C54.2333 294.205 51.6736 298.271 52.8019 302.184C54.0901 306.637 59.8579 309.623 60.1273 314.207C60.3631 318.083 56.4646 321.507 56.7593 325.362C56.9954 327.012 57.6856 328.589 58.7717 329.96C62.2239 334.946 67.3095 338.377 75.0054 338.268L84.4358 338.553L78.0029 319.594Z" fill="#7E57C2"/>
<g opacity="0.3">
<path d="M78.0029 319.594C78.8449 316.908 76.7652 314.214 74.4918 312.294C72.2184 310.375 69.4987 308.608 68.3115 306.031C66.3918 301.855 68.9683 296.453 65.7013 292.971C63.7731 290.927 60.3209 290.241 58.6117 288.051C57.8214 286.844 57.2988 285.519 57.0708 284.146C55.254 277.21 51.3192 270.826 45.6786 265.662C45.2983 271.84 46.8427 277.992 50.1496 283.474C51.4715 285.664 53.105 287.796 53.5176 290.241C54.2333 294.205 51.6736 298.271 52.8019 302.184C54.0901 306.637 59.8579 309.623 60.1273 314.207C60.3631 318.083 56.4646 321.507 56.7593 325.362C56.9954 327.012 57.6856 328.589 58.7717 329.96C62.2239 334.946 67.3095 338.377 75.0054 338.268L84.4358 338.553L78.0029 319.594Z" fill="black"/>
</g>
<path d="M86.3386 338.721C87.2023 338.836 88.0825 338.821 88.9404 338.677C89.9819 338.539 91.0056 338.314 91.9968 338.005C93.3658 337.592 94.6462 336.986 95.7858 336.209C96.4715 335.731 97.0073 335.111 97.3435 334.406C97.6252 333.616 97.7727 332.795 97.7814 331.968C97.8004 331.084 97.8763 330.202 98.0087 329.325C98.1861 328.392 98.5754 327.499 99.1538 326.697C100.265 325.004 102.118 323.398 102.707 321.098C103.296 318.799 102.892 316.39 102.454 313.937C102.017 311.484 101.612 308.827 102.673 306.257C103.734 303.688 105.755 301.388 106.791 298.512C107.826 295.636 107.338 292.468 107.557 289.38C107.622 287.811 108.039 286.269 108.786 284.839C109.544 283.379 110.605 282.029 111.43 280.51C113.114 277.43 113.4 273.94 113.855 270.517C114.083 268.794 114.301 267.049 114.529 265.297C114.672 263.526 115.025 261.772 115.581 260.063C116.22 258.34 116.974 256.651 117.838 255.004C118.283 254.152 118.649 253.271 118.932 252.369C119.091 251.435 119.192 250.494 119.236 249.551C119.336 247.662 119.251 245.77 118.983 243.894C118.73 242.01 118.335 240.141 118.099 238.251C118.099 238.134 118.099 238.024 118.099 237.922L118.048 237.55L117.669 237.71C115.679 238.596 113.95 239.868 112.617 241.426C111.311 242.952 110.259 244.631 109.494 246.412C107.919 249.923 107.355 253.602 106.563 257.114C105.772 260.625 104.762 264.078 102.69 266.998C101.655 268.458 100.4 269.787 99.3222 271.203C98.1519 272.585 97.3522 274.176 96.9815 275.86C96.4173 279.32 98.615 282.357 98.1603 285.423C97.9551 286.925 97.3809 288.371 96.4763 289.664C95.6343 290.971 94.6155 292.183 93.6556 293.395C92.6827 294.583 91.8372 295.847 91.1296 297.169C90.4636 298.463 90.0701 299.85 89.9676 301.264C89.7403 304.024 90.1865 306.637 89.9676 309.104C89.7047 311.456 88.9123 313.74 87.6353 315.828C86.4986 317.835 85.2272 319.653 84.1662 321.419C83.6358 322.295 83.139 323.157 82.7348 324.026C82.3524 324.86 82.0702 325.726 81.8928 326.61C81.611 328.154 81.5883 329.725 81.8255 331.274C82.0729 333.435 83.0054 335.495 84.5199 337.224C84.7514 337.485 85.0077 337.73 85.2861 337.954C85.4721 338.123 85.6781 338.275 85.9008 338.407C86.2544 338.633 86.4396 338.735 86.4396 338.735C85.7665 338.274 85.1538 337.75 84.6125 337.173C83.1669 335.437 82.2937 333.393 82.0865 331.26C81.8721 329.73 81.9118 328.181 82.2044 326.661C82.3817 325.798 82.6639 324.954 83.0464 324.142C83.473 323.264 83.9536 322.406 84.4862 321.573C85.5555 319.821 86.8354 318.01 87.9973 315.988C89.3125 313.868 90.1309 311.544 90.4055 309.148C90.6581 306.63 90.2202 304.002 90.456 301.315C90.5644 299.947 90.9492 298.605 91.5927 297.351C92.3046 296.057 93.1501 294.82 94.1187 293.658C95.0786 292.446 96.0974 291.234 96.9731 289.898C97.9341 288.556 98.5488 287.049 98.7749 285.482C99.2296 282.219 97.0488 279.167 97.613 275.948C97.9821 274.337 98.7553 272.817 99.878 271.495C100.947 270.101 102.21 268.772 103.246 267.275C105.393 264.275 106.429 260.756 107.212 257.231C107.995 253.705 108.576 250.055 110.125 246.609C110.87 244.877 111.894 243.246 113.165 241.762C114.446 240.266 116.109 239.047 118.023 238.199L117.594 237.988C117.594 238.097 117.594 238.207 117.636 238.324C117.872 240.236 118.267 242.105 118.478 243.974C118.744 245.821 118.825 247.684 118.722 249.544C118.679 250.457 118.584 251.369 118.436 252.274C118.164 253.147 117.809 253.999 117.375 254.822C116.506 256.486 115.747 258.192 115.101 259.932C114.54 261.667 114.185 263.448 114.04 265.246C113.821 267.005 113.594 268.75 113.375 270.473C112.921 273.911 112.626 277.342 111.018 280.313C110.176 281.773 109.165 283.168 108.382 284.657C107.612 286.14 107.182 287.739 107.119 289.365C106.909 292.519 107.38 295.607 106.395 298.395C105.41 301.184 103.364 303.505 102.328 306.141C101.293 308.776 101.671 311.564 102.126 314.01C102.581 316.455 103.035 318.864 102.429 321.033C101.823 323.201 100.088 324.821 98.9602 326.559C98.3653 327.395 97.9675 328.326 97.7898 329.296C97.6626 330.183 97.5951 331.075 97.5877 331.968C97.5891 332.774 97.4529 333.576 97.1836 334.348C96.8717 335.017 96.3707 335.606 95.7269 336.063C94.6178 336.839 93.3689 337.45 92.0305 337.874C91.0523 338.201 90.04 338.445 89.0077 338.604C88.3769 338.703 87.7375 338.757 87.0964 338.764C86.5659 338.721 86.3386 338.721 86.3386 338.721Z" fill="#263238"/>
<path d="M116.129 242.434C116.084 242.512 116.053 242.596 116.036 242.682L115.834 243.412C115.649 244.061 115.422 245.032 115.068 246.244C114.714 247.456 113.847 248.828 113.115 250.515C112.257 252.413 111.509 254.348 110.875 256.311C110.151 258.501 109.519 260.91 108.846 263.509C108.273 266.277 107.259 268.962 105.831 271.488C105.057 272.816 104.147 274.159 103.499 275.634C102.819 277.14 102.363 278.715 102.143 280.321C101.664 283.646 100.984 286.948 100.106 290.212C98.2195 296.906 96.4177 303.286 94.7758 309.097C93.1338 314.908 91.5846 320.106 90.3047 324.5C89.0249 328.895 88.0566 332.399 87.3493 334.903C87.0209 336.1 86.7599 337.042 86.5747 337.735C86.4989 338.034 86.4315 338.275 86.381 338.465C86.3717 338.55 86.3717 338.636 86.381 338.721C86.4299 338.645 86.4668 338.564 86.4905 338.48C86.5494 338.283 86.6336 338.049 86.7347 337.75C86.9452 337.071 87.2398 336.129 87.6187 334.939C88.3765 332.457 89.4459 328.931 90.7678 324.588C92.0898 320.244 93.6306 314.988 95.3567 309.214C97.0828 303.44 98.8342 297.016 100.737 290.314C101.61 287.042 102.273 283.73 102.724 280.394C102.939 278.826 103.381 277.289 104.038 275.816C104.703 274.356 105.553 273.05 106.328 271.707C108.012 269.042 108.677 266.18 109.342 263.604C110.008 261.027 110.597 258.588 111.287 256.413C111.978 254.238 112.702 252.296 113.426 250.617C114.15 248.938 114.95 247.551 115.295 246.295C115.641 245.04 115.8 244.105 115.952 243.434C116.008 243.132 116.059 242.889 116.104 242.704C116.129 242.521 116.146 242.434 116.129 242.434Z" fill="#263238"/>
<path d="M88.0054 338.757C94.1604 335.581 95.9286 325.945 93.3605 320.149C90.7924 314.353 86.2962 309.053 85.6057 302.87C85.0668 298.118 86.8687 293.241 85.6057 288.598C83.8796 282.328 76.8237 277.473 76.9079 271.027C76.95 267.414 79.3244 264.012 79.1307 260.398C78.9034 255.975 74.9797 252.456 72.5547 248.558C68.8331 242.579 68.5889 235.52 67.3175 228.848C66.0461 222.176 63.1075 214.978 56.2536 211.686C55.2432 217.372 53.5171 221.27 54.056 228.972C54.2581 231.739 57.9629 237.002 58.4681 243.097C58.7712 246.747 58.9733 250.354 59.2343 253.974C59.4953 257.595 59.7479 261.099 61.2046 264.399C62.3244 266.932 64.1179 269.231 64.9515 271.845C66.5092 276.758 64.4547 282.065 65.7177 287.058C66.787 291.277 70.155 294.906 70.8455 299.183C71.8053 305.191 67.3259 311.44 69.6161 317.171C70.7613 320.018 73.4557 322.281 74.2219 325.237C74.8197 327.515 74.1714 329.931 74.7102 332.216C75.5522 335.91 83.686 338.786 88.0223 338.545" fill="#7E57C2"/>
<path d="M57.9383 217.299C57.9268 217.406 57.9268 217.513 57.9383 217.62C57.9383 217.861 58.0225 218.168 58.073 218.554C58.2162 219.379 58.3761 220.584 58.6961 222.146C59.0161 223.708 59.9759 225.475 60.7169 227.606C61.4579 229.738 62.283 232.176 62.9735 234.906C63.6639 237.637 64.2701 240.681 64.8848 243.944C65.4995 247.207 66.1731 250.762 68.0423 254.164C68.8843 255.865 69.8779 257.573 70.5683 259.398C71.2757 261.266 71.7113 263.203 71.865 265.165C72.2092 269.327 72.8135 273.47 73.6753 277.575C75.5614 285.999 77.3548 294.022 78.9883 301.329C80.6218 308.636 82.2637 315.155 83.5772 320.674C84.8907 326.193 85.9685 330.602 86.7179 333.712L87.5599 337.252C87.6609 337.632 87.7367 337.931 87.804 338.165C87.8268 338.272 87.8606 338.377 87.9051 338.479C87.92 338.372 87.92 338.264 87.9051 338.158C87.8546 337.917 87.7956 337.617 87.7198 337.231C87.5346 336.384 87.2736 335.187 86.9452 333.668C86.2379 330.551 85.2612 326.098 83.9898 320.601C82.7184 315.104 81.2112 308.512 79.5356 301.234C77.86 293.956 76.1676 285.904 74.2731 277.487C73.4108 273.382 72.8037 269.239 72.4544 265.077C72.2941 263.075 71.8443 261.098 71.1156 259.194C70.3662 257.339 69.3811 255.624 68.5138 253.93C66.6614 250.58 65.9878 247.083 65.3479 243.834C64.708 240.586 64.0933 237.534 63.3608 234.79C62.6282 232.045 61.8283 229.592 61.0032 227.49C60.178 225.387 59.2602 223.606 58.8898 222.08C58.5193 220.555 58.3425 219.328 58.1656 218.518C58.0814 218.138 58.0141 217.832 57.9636 217.591C57.9618 217.493 57.9534 217.396 57.9383 217.299Z" fill="#263238"/>
<path d="M354.878 64.8022H351.51C351.513 65.1334 351.438 65.4616 351.292 65.7674C351.145 66.0732 350.929 66.3504 350.657 66.5825C350.384 66.8147 350.061 66.997 349.706 67.1188C349.35 67.2406 348.971 67.2993 348.589 67.2915C348.025 67.309 347.469 67.1736 346.998 66.904C346.527 66.6344 346.165 66.2442 345.962 65.7877C345.784 65.4075 345.713 64.9964 345.754 64.5878C345.795 64.1793 345.947 63.785 346.197 63.4371C346.77 62.6195 348.016 61.8822 350.273 62.2253V55.6553H346.964V59.4951C345.606 59.8416 344.417 60.5649 343.578 61.5539C342.74 62.5429 342.3 63.743 342.324 64.9701C342.324 69.2187 346.719 70.2042 348.606 70.2042C350.045 70.2334 354.946 69.9341 354.878 64.8022Z" fill="#7E57C2"/>
<path d="M346.938 54.3271H350.298V51.6043H346.938V54.3271Z" fill="#7E57C2"/>
<path d="M373.242 60.9186C373.253 60.7947 373.253 60.6703 373.242 60.5464C373.242 60.2836 373.242 59.9258 373.242 59.466C373.242 59.2324 373.242 58.9623 373.2 58.6703C373.158 58.3783 373.108 58.0571 373.049 57.7213C372.99 57.3855 372.931 56.9913 372.863 56.6044L372.51 55.3633C371.884 53.2262 370.86 51.1919 369.479 49.3408C367.472 46.5995 364.767 44.2936 361.572 42.6004C358.377 40.9071 354.776 39.8716 351.047 39.5735C349.927 39.4877 348.802 39.4682 347.679 39.5151C347.115 39.5151 346.534 39.5151 345.995 39.61L344.261 39.8363C341.881 40.2197 339.578 40.9009 337.424 41.8584C335.175 42.89 333.108 44.1954 331.285 45.7347C329.42 47.3741 327.86 49.2558 326.663 51.3119C325.375 53.4316 324.531 55.7327 324.17 58.1082C324.065 58.71 324.006 59.3172 323.994 59.9258C323.938 60.5353 323.923 61.1472 323.952 61.7582C324.135 65.6742 325.547 69.4727 328.035 72.7447V72.5183C326.865 75.0514 325.711 77.5408 324.583 79.9644L324.381 80.4097L324.911 80.2783L334.089 78.0883L333.87 78.0445C336.961 80.0732 340.562 81.439 344.378 82.0303C346.149 82.3163 347.953 82.412 349.75 82.315C350.617 82.3037 351.482 82.233 352.335 82.1033L353.59 81.9353C354.003 81.8697 354.432 81.7602 354.802 81.6799C360.458 80.4373 365.419 77.4898 368.796 73.3652C370.056 71.8457 371.068 70.1826 371.802 68.4231C371.962 68.0362 372.114 67.6931 372.257 67.3135C372.4 66.9339 372.476 66.5835 372.569 66.255C372.661 65.9265 372.762 65.5907 372.847 65.2841C372.931 64.9775 372.956 64.6782 373.006 64.3935C373.082 63.8314 373.2 63.335 373.225 62.9335C373.251 62.532 373.225 62.1451 373.225 61.8385C373.225 61.5319 373.225 61.3421 373.225 61.1742C373.225 61.0063 373.225 60.9478 373.225 60.9478C373.213 61.0229 373.213 61.0991 373.225 61.1742C373.225 61.3421 373.225 61.5611 373.166 61.8385C373.108 62.1159 373.116 62.5028 373.082 62.9262C373.049 63.3496 372.922 63.846 372.821 64.3862C372.018 68.4264 369.879 72.1776 366.664 75.184C363.449 78.1905 359.296 80.3228 354.71 81.3222C354.314 81.4025 353.918 81.5047 353.514 81.5704L352.276 81.7309C351.441 81.8518 350.597 81.9177 349.75 81.9281C347.986 82.0087 346.217 81.9082 344.48 81.6287C340.752 81.0341 337.237 79.6916 334.216 77.7086L334.115 77.6357H333.988L324.802 79.8256L325.122 80.1395L328.583 72.7008L328.633 72.5841L328.557 72.4746C326.899 70.2997 325.723 67.8762 325.088 65.3279C324.798 64.1456 324.623 62.9441 324.566 61.7363C324.538 61.1399 324.552 60.5426 324.608 59.9478C324.614 59.3536 324.67 58.7607 324.777 58.1739C325.1 55.8541 325.895 53.6024 327.126 51.5236C328.296 49.5142 329.815 47.6726 331.631 46.0632C333.414 44.552 335.439 43.2711 337.642 42.2599C339.748 41.3101 342.004 40.6338 344.336 40.2524L346.02 40.0261C346.585 39.9531 347.149 39.9604 347.704 39.9239C348.802 39.8786 349.902 39.8957 350.997 39.975C354.664 40.2533 358.211 41.2526 361.367 42.897C364.522 44.5413 367.204 46.7875 369.209 49.465C370.599 51.2837 371.639 53.2855 372.291 55.3925L372.67 56.6189C372.745 57.0058 372.813 57.3489 372.88 57.7139C372.948 58.0789 372.998 58.371 373.057 58.663C373.116 58.955 373.099 59.2178 373.124 59.4514C373.124 59.904 373.192 60.2617 373.217 60.5245C373.201 60.6562 373.209 60.7893 373.242 60.9186Z" fill="#263238"/>
<path d="M122.149 147.007H170.775C170.775 147.007 170.775 111.609 213.203 110.982C235.238 110.646 246.664 123.165 251.312 132.75C256.701 143.883 255.067 156.57 247.843 166.9C239.6 178.689 221.834 190.537 189.063 185.529L188.752 279.458H236.838V223.774C236.838 223.774 304.274 208.663 304.274 144.204C304.274 82.5555 246.774 69.2403 215.864 68.3789C198.67 67.9044 192.44 67.262 171.171 69.8827C144.067 73.2407 121.577 100.528 122.149 147.007Z" fill="#7E57C2"/>
<path d="M237.419 299.037H188.616V338.552H237.419V299.037Z" fill="#7E57C2"/>
<path opacity="0.1" d="M237.419 299.037H188.616V338.552H237.419V299.037Z" fill="black"/>
<path opacity="0.1" d="M122.149 147.007H170.775C170.775 147.007 170.775 111.609 213.203 110.982C235.238 110.646 246.664 123.165 251.312 132.75C256.701 143.883 255.067 156.57 247.843 166.9C239.6 178.689 221.834 190.537 189.063 185.529L188.752 279.458H236.838V223.774C236.838 223.774 304.274 208.663 304.274 144.204C304.274 82.5555 246.774 69.2403 215.864 68.3789C198.67 67.9044 192.44 67.262 171.171 69.8827C144.067 73.2407 121.577 100.528 122.149 147.007Z" fill="black"/>
<path d="M102 147.007H150.634C150.634 147.007 150.634 111.61 193.062 110.982C215.097 110.646 226.523 123.165 231.163 132.75C236.56 143.883 234.927 156.57 227.702 166.9C219.459 178.689 201.381 189.406 168.611 184.42V279.458H216.697V223.774C216.697 223.774 284.133 208.663 284.133 144.204C284.133 82.5555 220.36 68.2402 193.071 68.2402C172.198 68.2621 101.082 72.6348 102 147.007Z" fill="#7E57C2"/>
<path opacity="0.3" d="M102 147.007H150.634C150.634 147.007 150.634 111.61 193.062 110.982C215.097 110.646 226.523 123.165 231.163 132.75C236.56 143.883 234.927 156.57 227.702 166.9C219.459 178.689 201.381 189.406 168.611 184.42V279.458H216.697V223.774C216.697 223.774 284.133 208.663 284.133 144.204C284.133 82.5555 220.36 68.2402 193.071 68.2402C172.198 68.2621 101.082 72.6348 102 147.007Z" fill="black"/>
<path d="M217.278 299.037H168.476V338.552H217.278V299.037Z" fill="#7E57C2"/>
<path opacity="0.3" d="M217.278 299.037H168.476V338.552H217.278V299.037Z" fill="black"/>
<path d="M198.553 111.171C198.312 111.189 198.069 111.189 197.828 111.171C197.349 111.171 196.658 111.033 195.757 111.025C193.21 110.917 190.656 111.01 188.129 111.303C184.38 111.714 180.692 112.465 177.124 113.544C175.02 114.181 172.972 114.947 170.994 115.836C168.856 116.762 166.842 117.891 164.99 119.201C163.151 120.523 161.503 122.033 160.082 123.698C158.734 125.237 157.505 126.852 156.402 128.531C154.561 131.39 153.1 134.422 152.049 137.568C151.336 139.691 150.846 141.866 150.584 144.065C150.483 144.839 150.458 145.452 150.432 145.861C150.433 146.072 150.41 146.282 150.365 146.489C150.343 146.28 150.343 146.07 150.365 145.861C150.365 145.445 150.365 144.832 150.441 144.051C150.634 141.827 151.083 139.627 151.78 137.481C152.792 134.298 154.233 131.231 156.074 128.341C157.179 126.643 158.414 125.012 159.77 123.457C161.204 121.765 162.872 120.233 164.738 118.895C166.612 117.566 168.651 116.423 170.817 115.486C172.808 114.58 174.87 113.8 176.989 113.15C180.589 112.075 184.313 111.341 188.095 110.96C190.64 110.689 193.209 110.637 195.766 110.806C196.46 110.845 197.152 110.918 197.837 111.025C198.079 111.059 198.318 111.108 198.553 111.171Z" fill="#263238"/>
<path d="M271.823 103.66C271.823 103.66 271.764 103.609 271.663 103.499C271.562 103.39 271.41 103.2 271.242 102.988L269.633 101.017C269.288 100.594 268.918 100.105 268.48 99.6009L266.964 98.0022L265.23 96.1553C264.598 95.5129 263.857 94.8924 263.116 94.2135C262.375 93.5346 261.618 92.8119 260.759 92.1184C259.9 91.4249 258.982 90.7168 258.039 89.9868C257.568 89.6218 257.104 89.2568 256.599 88.8699L255.033 87.7968C253.964 87.0668 252.903 86.3368 251.749 85.6068C246.721 82.488 241.388 79.7571 235.81 77.4454L231.373 75.708L226.969 74.248C225.529 73.7297 224.064 73.3647 222.65 72.9559C221.235 72.5471 219.854 72.131 218.44 71.8463L214.415 70.9338C213.11 70.6345 211.813 70.452 210.576 70.2038C209.338 69.9556 208.142 69.7366 206.972 69.6125L203.604 69.1891C201.474 68.8752 199.52 68.8095 197.819 68.6635C196.977 68.6051 196.135 68.5248 195.436 68.4956L193.432 68.4518L190.654 68.3715H189.93H189.686C189.766 68.3605 189.849 68.3605 189.93 68.3715H190.654H193.432H195.445C196.177 68.3715 196.977 68.4591 197.836 68.5102C199.52 68.6343 201.507 68.6854 203.637 68.9847L207.005 69.3789C208.176 69.4957 209.372 69.7585 210.618 69.9556C211.864 70.1527 213.144 70.3571 214.482 70.6856L218.524 71.5908C219.922 71.8682 221.303 72.3208 222.734 72.6931C224.165 73.0654 225.622 73.4231 227.062 73.9779L231.491 75.4379L235.953 77.1826C241.561 79.4995 246.915 82.2506 251.951 85.4024C253.113 86.1324 254.174 86.9135 255.244 87.6362L256.81 88.6217C257.315 88.9867 257.778 89.3517 258.25 89.7459L260.961 91.9359C261.803 92.6659 262.561 93.3959 263.31 94.0602C264.059 94.7245 264.775 95.3742 265.407 96.0239L267.091 97.8854L268.589 99.506C269.019 100.017 269.381 100.513 269.718 100.966C270.374 101.82 270.888 102.492 271.25 102.973L271.646 103.506C271.712 103.551 271.772 103.602 271.823 103.66Z" fill="#263238"/>
<path d="M266.754 194.18C266.654 194.338 266.532 194.485 266.392 194.618L265.23 195.808C264.75 196.34 264.144 196.976 263.395 197.684C262.645 198.392 261.845 199.224 260.869 200.085C259.892 200.947 258.848 201.91 257.661 202.881C256.473 203.852 255.185 204.874 253.813 205.94C247.793 210.495 241.194 214.441 234.143 217.7C232.51 218.43 230.969 219.16 229.479 219.722C227.988 220.284 226.599 220.861 225.319 221.328C224.039 221.796 222.861 222.182 221.833 222.526C220.806 222.869 219.905 223.146 219.164 223.35L217.48 223.825C217.285 223.892 217.082 223.941 216.874 223.971C217.056 223.881 217.247 223.808 217.447 223.752L219.131 223.212C219.863 222.985 220.747 222.693 221.766 222.328C222.785 221.963 223.964 221.598 225.227 221.08C226.49 220.562 227.887 220.073 229.344 219.438C230.801 218.803 232.358 218.131 233.983 217.394C237.191 215.861 240.652 214.065 244.146 211.992C247.641 209.918 250.781 207.736 253.577 205.677C254.949 204.626 256.263 203.64 257.433 202.648C258.604 201.655 259.698 200.757 260.666 199.896C261.635 199.034 262.485 198.238 263.243 197.538C264.001 196.837 264.624 196.224 265.129 195.713L266.308 194.552C266.445 194.418 266.594 194.293 266.754 194.18Z" fill="#263238"/>
<path d="M215.846 276.144C215.72 276.144 215.619 264.42 215.619 249.959C215.619 235.498 215.72 223.767 215.846 223.767C215.973 223.767 216.065 235.49 216.065 249.959C216.065 264.428 215.964 276.144 215.846 276.144Z" fill="#263238"/>
<path d="M217.699 335.873C217.573 335.873 217.48 327.646 217.48 317.499C217.48 307.352 217.573 299.117 217.699 299.117C217.826 299.117 217.918 307.344 217.918 317.499C217.918 327.653 217.817 335.873 217.699 335.873Z" fill="#263238"/>
<path d="M265.567 141.409C264.725 142.869 267.866 144.066 269.676 144.54C271.523 144.933 273.435 145.047 275.326 144.876C277.852 144.759 280.437 144.555 282.618 143.475C284.528 142.449 286.054 140.966 287.013 139.204C287.958 137.448 288.706 135.617 289.244 133.736C289.244 133.736 269.348 134.861 265.567 141.409Z" fill="#7E57C2"/>
<g opacity="0.4">
<path d="M265.567 141.409C264.725 142.869 267.866 144.066 269.676 144.54C271.523 144.933 273.435 145.047 275.326 144.876C277.852 144.759 280.437 144.555 282.618 143.475C284.528 142.449 286.054 140.966 287.013 139.204C287.958 137.448 288.706 135.617 289.244 133.736C289.244 133.736 269.348 134.861 265.567 141.409Z" fill="black"/>
</g>
<path d="M321.763 136.736C325.043 138.753 328.974 139.821 332.995 139.788C334.922 139.881 336.823 139.362 338.341 138.328C338.99 137.809 339.478 137.152 340.143 136.656C340.598 136.32 341.128 136.065 341.558 135.707C341.785 135.538 341.959 135.322 342.067 135.08C342.174 134.838 342.21 134.577 342.173 134.32C342.006 133.686 341.597 133.12 341.011 132.714C338.729 131.59 336.001 131.633 333.374 131.685C330.745 131.783 328.148 132.224 325.669 132.991C323.632 133.59 321.501 134.451 320.466 136.057" fill="#7E57C2"/>
<g opacity="0.4">
<path d="M342.173 134.32C341.875 133.705 341.351 133.191 340.682 132.86C338.4 131.736 336.001 131.634 333.374 131.685C330.745 131.784 328.148 132.224 325.669 132.992C323.632 133.59 321.501 134.452 320.466 136.058L321.763 136.737C325.043 138.754 328.974 139.822 332.995 139.788C334.922 139.881 336.823 139.362 338.341 138.328C338.99 137.81 339.478 137.153 340.143 136.656C340.598 136.321 341.128 136.065 341.558 135.707C341.785 135.538 341.959 135.323 342.067 135.081C342.174 134.839 342.21 134.578 342.173 134.32Z" fill="black"/>
</g>
<path d="M282.912 162.936L324.886 163.418C324.972 163.418 325.056 163.4 325.132 163.367C325.208 163.333 325.274 163.285 325.325 163.225C325.376 163.166 325.41 163.097 325.424 163.024C325.439 162.951 325.433 162.876 325.408 162.805L320.482 149.49C320.482 149.49 321.207 142.832 322.209 134.831C323.733 122.677 325.762 107.398 325.787 107.442C322.916 100.463 305.975 99.2803 305.975 99.2803L286.668 100.273L285.994 99.2876L280.437 101.529C279.225 102.018 278.059 102.589 276.951 103.237C273.28 105.361 264.439 110.245 262.822 115.683C259.092 128.276 265.407 142.328 265.407 142.328L269.466 139.576C270.488 138.893 271.563 138.271 272.682 137.715L280.816 156.614C280.332 156.879 279.922 157.234 279.616 157.653C279.31 158.072 279.116 158.546 279.048 159.038C278.98 160.571 279.89 162.411 282.912 162.936Z" fill="#7E57C2"/>
<g opacity="0.3">
<path d="M300.923 140.656C302.253 134.451 301.554 128.071 300.838 121.793C298.514 126.903 298.599 132.743 296.132 137.809C295.829 138.344 295.608 138.911 295.475 139.495C295.411 139.789 295.427 140.092 295.524 140.378C295.621 140.665 295.794 140.928 296.031 141.145C296.704 141.678 297.715 141.386 298.607 141.299C299.406 141.166 300.184 140.951 300.923 140.656Z" fill="black"/>
</g>
<g opacity="0.4">
<path d="M285.439 155.023C288.807 156.037 292.394 154.147 295.955 153.811C298.313 153.592 300.67 154.059 303.011 154.388C307.744 155.051 312.56 155.155 317.325 154.694C318.056 154.659 318.772 154.498 319.43 154.22C319.77 154.019 320.049 153.749 320.241 153.433C320.433 153.118 320.533 152.766 320.533 152.409C312.602 151.679 304.678 151.285 296.747 150.577C294.772 150.285 292.75 150.342 290.802 150.745C288.411 151.387 286.592 153.015 284.908 154.629" fill="black"/>
</g>
<path d="M340.96 131.926C337.533 125.232 325.45 106.719 325.45 106.719L316.096 116.888L318.276 136.853C318.276 136.853 323.219 132.072 337.036 131.977C338.04 132.012 339.023 132.241 339.912 132.647C340.8 133.054 341.573 133.628 342.172 134.327L340.96 131.926Z" fill="#7E57C2"/>
<path d="M284.79 128.385C284.122 126.966 283.593 125.501 283.207 124.005C282.684 122.548 282.301 121.057 282.062 119.545C282.719 120.967 283.246 122.431 283.636 123.925C284.159 125.382 284.545 126.874 284.79 128.385Z" fill="#263238"/>
<path d="M315.388 115.537C315.693 115.724 315.975 115.937 316.23 116.172C316.974 116.795 317.672 117.458 318.319 118.158C320.496 120.465 322.026 123.179 322.79 126.086C323.186 127.692 323.274 129.345 323.051 130.977C322.84 132.473 322.512 133.787 322.293 134.897C322.074 136.006 321.939 136.912 321.872 137.539C321.87 137.866 321.83 138.191 321.754 138.51C321.694 138.184 321.677 137.854 321.703 137.525C321.74 136.63 321.836 135.738 321.99 134.853C322.167 133.736 322.461 132.407 322.655 130.94C322.85 129.345 322.75 127.734 322.36 126.166C321.606 123.313 320.143 120.638 318.074 118.326C316.534 116.53 315.321 115.596 315.388 115.537Z" fill="#263238"/>
<path d="M306.816 161.33C306.524 161.443 306.215 161.521 305.899 161.563C305.539 161.646 305.173 161.707 304.804 161.746C304.374 161.797 303.886 161.877 303.339 161.899C302.056 162.001 300.765 162.001 299.482 161.899C297.913 161.759 296.362 161.49 294.851 161.096C293.348 160.677 291.894 160.137 290.507 159.483C289.382 158.939 288.315 158.311 287.316 157.607C286.878 157.315 286.524 157.008 286.204 156.753C285.928 156.537 285.667 156.308 285.421 156.066C285.187 155.879 284.986 155.662 284.823 155.424C284.882 155.373 285.783 156.249 287.509 157.395C288.518 158.06 289.585 158.656 290.7 159.176C292.072 159.801 293.503 160.321 294.978 160.731C296.463 161.119 297.984 161.393 299.525 161.549C300.783 161.666 302.049 161.7 303.314 161.651C305.478 161.549 306.799 161.271 306.816 161.33Z" fill="#263238"/>
<path d="M319.776 157.184C319.974 157.514 320.086 157.878 320.104 158.249C320.238 159.139 320.161 160.044 319.877 160.907C319.587 161.789 319.001 162.577 318.193 163.17C317.578 163.615 317.106 163.754 317.081 163.717C317.056 163.681 317.452 163.44 317.982 162.987C318.663 162.371 319.158 161.619 319.422 160.797C320.096 158.87 319.616 157.191 319.776 157.184Z" fill="#263238"/>
<path d="M317.493 159.753C317.676 160.504 317.603 161.284 317.283 162C316.963 162.715 316.41 163.335 315.691 163.783C315.599 163.702 316.382 162.98 316.87 161.863C317.358 160.746 317.367 159.76 317.493 159.753Z" fill="#263238"/>
<path d="M309.983 135.736C309.537 136.39 309.036 137.015 308.484 137.605C308.049 138.264 307.556 138.894 307.011 139.489C307.172 138.718 307.555 137.995 308.122 137.386C308.571 136.708 309.211 136.14 309.983 135.736Z" fill="#263238"/>
<path d="M281.17 118.056C280.528 117.729 279.907 117.373 279.309 116.99C276.314 115.284 272.916 114.184 269.365 113.771C268.622 113.724 267.882 113.638 267.15 113.515C267.896 113.426 268.653 113.426 269.399 113.515C273.046 113.785 276.54 114.913 279.503 116.778C280.124 117.135 280.685 117.565 281.17 118.056Z" fill="#263238"/>
<path d="M325.45 106.478C323.943 107.53 322.535 108.684 321.24 109.93C320.047 111.26 318.98 112.671 318.049 114.15C318.149 113.653 318.345 113.174 318.63 112.734C319.239 111.639 320.003 110.614 320.903 109.682C321.806 108.752 322.842 107.926 323.985 107.222C324.42 106.903 324.916 106.651 325.45 106.478Z" fill="#263238"/>
<path d="M308.122 100.463C308.199 100.568 308.261 100.681 308.307 100.799C308.471 101.129 308.604 101.471 308.703 101.821C309.058 103.122 309.058 104.476 308.703 105.777C308.179 107.719 306.98 109.475 305.268 110.807C303.106 112.394 300.353 113.245 297.521 113.201C294.687 113.21 291.925 112.424 289.648 110.96C287.834 109.759 286.362 108.213 285.346 106.442C284.661 105.255 284.179 103.989 283.914 102.682C283.837 102.33 283.787 101.974 283.763 101.616C283.739 101.491 283.739 101.362 283.763 101.237C283.763 101.237 283.856 101.748 284.091 102.653C284.419 103.923 284.937 105.15 285.632 106.303C286.659 108.021 288.118 109.518 289.901 110.683C292.095 112.091 294.749 112.858 297.479 112.873C300.208 112.916 302.865 112.108 304.964 110.595C306.619 109.312 307.792 107.629 308.332 105.763C308.707 104.503 308.759 103.187 308.484 101.908C308.324 100.945 308.071 100.477 308.122 100.463Z" fill="#263238"/>
<g opacity="0.3">
<path d="M311.069 137.028C311.069 136.663 311.002 136.232 310.631 136.05C310.514 135.998 310.384 135.972 310.252 135.972C310.121 135.972 309.991 135.998 309.874 136.05C309.638 136.16 309.429 136.309 309.259 136.488C308.269 137.381 307.503 138.442 307.011 139.605L311.137 139.291C311.111 138.554 311.094 137.78 311.069 137.028Z" fill="black"/>
</g>
<g opacity="0.3">
<path d="M324.768 129.502C324.353 127.455 323.319 125.541 321.771 123.954C323.556 129.006 322.958 131.86 321.956 135.32L322.175 134.838C323.328 132.816 325.08 131.546 324.768 129.502Z" fill="black"/>
</g>
<path d="M316.525 299.198L314.008 331.938L297.589 331.77L295.004 297.73L316.525 299.198Z" fill="#FFBE9D"/>
<path d="M314.471 327.631V328.58C314.471 328.58 332.995 335.033 333.172 338.07L296.385 337.895L296.957 327.288C302.439 329.515 308.173 329.792 314.471 327.631Z" fill="#7E57C2"/>
<path d="M300.687 330.69C300.338 330.781 300.039 330.98 299.847 331.249C299.655 331.517 299.582 331.838 299.643 332.15C299.733 332.461 299.959 332.73 300.273 332.9C300.587 333.07 300.965 333.128 301.327 333.062C301.702 332.965 302.021 332.751 302.224 332.46C302.426 332.17 302.497 331.825 302.422 331.493C302.288 331.177 302.018 330.919 301.669 330.774C301.321 330.628 300.92 330.606 300.552 330.711" fill="white"/>
<path d="M296.385 337.895L296.519 335.348L331.749 336.457C331.749 336.457 333.382 337.085 333.189 338.078L296.385 337.895Z" fill="#263238"/>
<path d="M314.605 328.668C314.605 328.822 313.696 328.887 312.812 329.398C311.928 329.909 311.448 330.545 311.288 330.486C311.128 330.428 311.397 329.523 312.483 328.939C313.569 328.355 314.647 328.501 314.605 328.668Z" fill="#263238"/>
<path d="M318.453 330.07C318.496 330.223 317.712 330.478 317.098 331.135C316.483 331.792 316.306 332.486 316.121 332.479C315.936 332.471 315.835 331.588 316.618 330.792C317.401 329.997 318.445 329.96 318.453 330.07Z" fill="#263238"/>
<path d="M320.618 334.085C320.449 334.085 320.205 333.355 320.677 332.486C321.148 331.617 321.982 331.303 322.057 331.427C322.133 331.552 321.611 332.011 321.215 332.72C320.82 333.428 320.803 334.07 320.618 334.085Z" fill="#263238"/>
<path d="M313.527 59.7505C314.479 57.7065 313.325 55.2318 311.279 53.9105C309.123 52.6798 306.493 52.2365 303.962 52.6768C301.465 53.1308 299.047 53.8671 296.771 54.8668C295.713 53.9414 294.379 53.2893 292.918 52.9833C291.457 52.6772 289.926 52.7293 288.497 53.1336C287.069 53.538 285.797 54.2787 284.826 55.2731C283.855 56.2676 283.221 57.4765 282.996 58.765C282.086 58.5663 281.13 58.5863 280.232 58.8229C279.334 59.0594 278.527 59.5035 277.898 60.1075C277.268 60.7115 276.841 61.4527 276.661 62.2515C276.48 63.0503 276.554 63.8765 276.875 64.6415L288.259 68.109L300.687 87.089C302.523 88.4476 304.868 89.1804 307.282 89.1507C309.696 89.1211 312.015 88.331 313.807 86.9278C315.598 85.5247 316.74 83.6044 317.018 81.5252C317.297 79.446 316.694 77.3499 315.321 75.628C316.017 75.0911 316.608 74.46 317.072 73.7592C318.065 73.25 318.932 72.5748 319.621 71.7728C320.311 70.9707 320.809 70.0578 321.088 69.0872C322.191 64.8605 318.419 60.2469 313.527 59.7505Z" fill="#263238"/>
<path d="M305.992 99.2805C305.284 96.1926 304.796 94.0756 304.804 94.0975C304.813 94.1194 311.54 91.8345 311.052 83.7096C310.816 79.6654 309.04 73.2925 307.389 68.1241C305.908 63.4667 300.898 58.3348 295.601 59.8167L279.544 66.6057C277.936 67.0583 277.658 68.3723 278.037 69.7958V70.5258L284.277 92.9076L286.912 102.909C287.474 104.962 288.902 106.759 290.915 107.945C292.929 109.131 295.382 109.621 297.791 109.318C299.106 109.158 300.37 108.766 301.505 108.166C302.64 107.567 303.621 106.773 304.389 105.833C305.157 104.893 305.695 103.827 305.971 102.7C306.247 101.574 306.254 100.41 305.992 99.2805Z" fill="#FFBE9D"/>
<path d="M307.33 73.5252C307.398 73.7842 307.348 74.0559 307.192 74.2841C307.035 74.5123 306.783 74.6796 306.488 74.7516C306.34 74.7876 306.184 74.7972 306.031 74.7797C305.878 74.7622 305.73 74.718 305.597 74.6498C305.464 74.5816 305.349 74.4908 305.257 74.3829C305.166 74.2749 305.101 74.152 305.065 74.0216C304.998 73.7635 305.048 73.4929 305.205 73.2659C305.362 73.0389 305.613 72.873 305.907 72.8025C306.056 72.7653 306.211 72.7547 306.364 72.7712C306.517 72.7878 306.665 72.8312 306.798 72.8988C306.931 72.9664 307.047 73.0569 307.138 73.1645C307.23 73.2722 307.295 73.395 307.33 73.5252Z" fill="#263238"/>
<path d="M306.598 71.9707C306.48 72.1313 305.461 71.7298 304.215 71.9707C302.969 72.2116 302.178 72.9124 302.009 72.8029C301.841 72.6934 302.009 72.489 302.354 72.1678C302.818 71.7434 303.42 71.4529 304.081 71.3356C304.732 71.2138 305.411 71.2778 306.017 71.5181C306.489 71.686 306.649 71.905 306.598 71.9707Z" fill="#263238"/>
<path d="M295.105 75.92C295.172 76.1781 295.122 76.4487 294.966 76.6758C294.809 76.9028 294.557 77.0687 294.263 77.1391C294.118 77.1758 293.965 77.1871 293.815 77.1725C293.664 77.1578 293.519 77.1173 293.386 77.0535C293.254 76.9897 293.138 76.9038 293.044 76.8007C292.95 76.6976 292.881 76.5794 292.84 76.4529C292.772 76.1939 292.822 75.9223 292.979 75.6941C293.135 75.4659 293.387 75.2985 293.682 75.2265C293.828 75.19 293.981 75.1789 294.132 75.1941C294.283 75.2093 294.429 75.2503 294.561 75.3149C294.693 75.3794 294.81 75.4661 294.903 75.57C294.997 75.6739 295.065 75.7929 295.105 75.92Z" fill="#263238"/>
<path d="M294.49 74.5475C294.38 74.7081 293.353 74.2993 292.107 74.5475C290.861 74.7957 290.069 75.4819 289.901 75.3797C289.732 75.2775 289.901 75.0658 290.246 74.7373C290.711 74.3167 291.314 74.029 291.972 73.9124C292.623 73.7924 293.301 73.8538 293.909 74.0876C294.355 74.2628 294.549 74.4599 294.49 74.5475Z" fill="#263238"/>
<path d="M300.83 81.4093C301.448 81.114 302.104 80.8837 302.784 80.7231C303.095 80.6355 303.39 80.526 303.399 80.3289C303.355 80.0386 303.211 79.7664 302.986 79.5478L301.529 77.606C299.492 74.8393 297.942 72.5471 298.069 72.496C298.195 72.4449 299.955 74.613 301.992 77.3797L303.415 79.3361C303.695 79.6355 303.847 80.0094 303.845 80.3946C303.82 80.4996 303.768 80.5985 303.694 80.6843C303.62 80.7701 303.525 80.8407 303.415 80.891C303.251 80.9666 303.075 81.0231 302.893 81.0589C302.227 81.2566 301.533 81.3745 300.83 81.4093Z" fill="#263238"/>
<path d="M304.805 94.0966C300.546 94.9311 296.104 94.7239 291.973 93.498C291.973 93.498 296.385 98.4912 305.285 96.1041L304.805 94.0966Z" fill="#EB996E"/>
<path d="M294.7 73C294.616 73.3139 293.328 73.3066 291.863 73.6205C290.398 73.9344 289.236 74.4089 289 74.1607C288.899 74.0439 289.067 73.7373 289.514 73.4307C290.107 72.9976 290.811 72.6946 291.568 72.5474C292.318 72.3931 293.1 72.3931 293.85 72.5474C294.448 72.6423 294.759 72.854 294.7 73Z" fill="#263238"/>
<path d="M306.118 68.5249C305.916 68.8169 304.838 68.7439 303.592 68.9556C302.346 69.1673 301.361 69.5323 301.066 69.3206C300.931 69.2111 301.066 68.9337 301.428 68.5906C301.984 68.1852 302.656 67.9178 303.373 67.8168C304.078 67.6936 304.809 67.739 305.486 67.9482C306 68.1526 306.202 68.3789 306.118 68.5249Z" fill="#263238"/>
<path d="M283.51 61.3783C283.697 62.1691 284.081 62.9146 284.638 63.5619C285.194 64.2092 285.907 64.7423 286.728 65.1235C287.549 65.5047 288.456 65.7245 289.386 65.7673C290.315 65.8102 291.244 65.675 292.107 65.3714C293.437 64.9042 294.818 64.0282 296.165 64.4516C297.513 64.875 298.068 66.5394 299.357 67.1599C301.251 68.0797 303.567 66.4883 305.68 66.6489C307.364 66.773 308.635 67.8899 309.941 68.8389C311.246 69.7879 313.048 70.5033 314.521 69.8171C314.184 68.598 313.683 67.4172 313.031 66.2985C312.372 65.1723 311.283 64.2794 309.949 63.7727C309.208 63.5172 308.408 63.4296 307.701 63.1157C306.177 62.4441 305.495 60.9257 304.392 59.7796C303.667 59.0574 302.755 58.4952 301.73 58.1397C300.705 57.7843 299.597 57.6457 298.498 57.7356C296.679 57.8962 294.953 58.6919 293.117 58.6262C291.762 58.5751 290.465 58.0495 289.109 58.0714C286.474 58.0714 284.495 60.1154 283.03 62.0207" fill="#263238"/>
<path d="M292.385 63.0498C291.172 62.9695 288.697 62.7505 287.88 62.0059C287.05 61.2013 285.991 60.5997 284.809 60.2615C283.627 59.9233 282.363 59.8602 281.144 60.0787C279.934 60.3913 278.872 61.0325 278.114 61.9077C277.356 62.783 276.943 63.846 276.934 64.9405C275.461 65.2522 274.112 65.903 273.03 66.8243C271.948 67.7456 271.173 68.9031 270.787 70.1746C270.395 71.5056 270.382 72.8993 270.749 74.2357C271.116 75.5721 271.851 76.8114 272.892 77.8469C273.398 78.3952 273.86 78.9733 274.273 79.577C273.702 80.191 273.2 80.851 272.775 81.548C270.846 85.2418 276.075 86.658 276.075 86.658C276.075 89.14 278.727 89.1254 280.42 89.1181C282.112 89.1108 283.047 93.0309 284.369 92.8776L283.03 80.7815C283.226 80.8476 283.434 80.8822 283.645 80.8837C286.836 80.9348 286.002 75.6934 284.975 74.3137C285.926 73.2875 286.729 72.1648 287.366 70.9703C287.944 69.1442 287.985 67.2216 287.484 65.3785C288.554 65.2617 292.907 63.079 292.385 63.0498Z" fill="#263238"/>
<path d="M283.452 81.4238C283.343 81.0394 283.124 80.6852 282.814 80.3942C282.505 80.1031 282.116 79.8847 281.683 79.7594C281.25 79.634 280.787 79.6057 280.338 79.6772C279.889 79.7487 279.469 79.9176 279.115 80.1682C278.273 80.796 277.827 81.8472 278.332 83.6065C279.696 88.3077 284.858 86.1542 284.824 86.0228C284.79 85.8914 284.041 83.3656 283.452 81.4238Z" fill="#FFBE9D"/>
<path d="M282.651 84.5993C282.651 84.5993 282.575 84.6796 282.432 84.7745C282.233 84.9069 281.982 84.9671 281.733 84.9424C281.11 84.884 280.394 84.2124 280.125 83.3583C279.997 82.9593 279.971 82.5406 280.049 82.1319C280.058 81.9732 280.11 81.8186 280.203 81.6813C280.295 81.544 280.425 81.4281 280.58 81.3435C280.682 81.2958 280.8 81.2806 280.914 81.3006C281.028 81.3206 281.13 81.3745 281.203 81.453C281.312 81.5625 281.304 81.6647 281.337 81.672C281.371 81.6793 281.43 81.5625 281.337 81.38C281.273 81.2718 281.169 81.1847 281.043 81.1318C280.865 81.0693 280.665 81.0693 280.487 81.1318C280.276 81.2189 280.093 81.3509 279.956 81.5155C279.819 81.6801 279.732 81.8721 279.704 82.0735C279.595 82.5333 279.615 83.009 279.763 83.4605C279.857 83.8845 280.093 84.2748 280.442 84.5826C280.791 84.8905 281.238 85.102 281.725 85.1906C281.883 85.1962 282.041 85.1709 282.187 85.1166C282.333 85.0623 282.462 84.9803 282.567 84.8767C282.676 84.7161 282.676 84.6066 282.651 84.5993Z" fill="#EB996E"/>
<path d="M312.526 74.8616C312.526 74.8616 313.023 74.5331 313.713 73.8031C314.666 72.7512 315.25 71.4844 315.397 70.1531C315.509 69.2442 315.405 68.3252 315.094 67.4521C314.734 66.4505 314.068 65.5523 313.166 64.8533C312.124 64.0646 310.863 63.5258 309.507 63.2902C308.151 63.0545 306.748 63.1304 305.436 63.5101C305.184 63.5831 304.948 63.6926 304.712 63.7802C304.476 63.8678 304.266 63.9992 304.047 64.1087L303.71 64.2693V63.9481C303.703 63.3826 303.461 62.8383 303.028 62.4151C302.585 62.0043 302.041 61.685 301.437 61.4807C300.293 61.0675 299.026 60.9856 297.824 61.2471C295.501 61.707 293.53 62.6268 291.669 62.8166C290.21 63.0364 288.709 62.7761 287.459 62.0866C287.13 61.8899 286.844 61.6425 286.617 61.3566C286.483 61.1595 286.415 61.05 286.432 61.0427C286.737 61.4032 287.11 61.7166 287.535 61.9698C288.765 62.585 290.209 62.795 291.602 62.5611C292.572 62.4029 293.52 62.1583 294.431 61.8311C295.501 61.4602 296.598 61.1505 297.715 60.904C298.338 60.7734 298.978 60.7169 299.618 60.7361C300.293 60.767 300.957 60.9004 301.58 61.1303C302.224 61.3688 302.799 61.7277 303.264 62.1815C303.762 62.6757 304.042 63.3066 304.055 63.9627L303.718 63.8021L304.417 63.4517C304.678 63.3641 304.923 63.2473 305.192 63.167C306.574 62.7565 308.057 62.6707 309.49 62.9181C310.924 63.1656 312.255 63.7375 313.351 64.5759C314.298 65.3191 314.991 66.2737 315.355 67.3353C315.733 68.4604 315.784 69.6491 315.503 70.7955C315.222 71.9418 314.619 73.0102 313.747 73.9053C313.469 74.1796 313.156 74.4247 312.812 74.6353C312.728 74.7205 312.631 74.7965 312.526 74.8616Z" fill="#455A64"/>
<path d="M311.431 58.3561C310.878 58.1128 310.288 57.9383 309.679 57.8378C308.983 57.7553 308.274 57.8127 307.608 58.0057C306.745 58.2346 305.995 58.7075 305.478 59.3489L305.267 59.6044L305.141 59.3124C304.701 58.415 303.994 57.6355 303.091 57.0543C302.188 56.473 301.123 56.111 300.005 56.0055C298.249 55.9483 296.519 56.3835 295.071 57.2465C293.837 57.9437 292.525 58.5307 291.155 58.9985C290.211 59.3083 289.193 59.4135 288.191 59.3051C287.924 59.2624 287.662 59.1988 287.408 59.1153C287.24 59.0496 287.147 59.0131 287.156 58.9985C287.164 58.9839 287.535 59.0934 288.217 59.1518C289.185 59.2043 290.155 59.0671 291.054 58.7503C292.386 58.247 293.662 57.6411 294.869 56.9399C295.614 56.5387 296.404 56.2037 297.226 55.9398C298.13 55.6539 299.097 55.5467 300.055 55.6259C301.249 55.739 302.386 56.1306 303.344 56.7592C304.302 57.3878 305.045 58.2298 305.495 59.1956H305.166C305.745 58.5096 306.572 58.0111 307.515 57.7794C308.232 57.5992 308.988 57.5667 309.721 57.6845C310.186 57.761 310.631 57.9094 311.035 58.1225C311.179 58.1836 311.312 58.2623 311.431 58.3561Z" fill="#455A64"/>
<path d="M300.342 83.5703C300.145 83.4278 299.916 83.3228 299.669 83.2625C299.423 83.2021 299.164 83.1876 298.911 83.2199C298.614 83.2748 298.334 83.3831 298.089 83.5378C297.844 83.6925 297.639 83.8901 297.488 84.1178C297.488 84.1178 297.445 84.1543 297.437 84.1762C297.321 84.3429 297.268 84.5369 297.285 84.731C297.322 84.9425 297.418 85.1429 297.565 85.3147C297.712 85.4866 297.905 85.6245 298.127 85.7165C298.483 85.8729 298.886 85.9302 299.281 85.8806C299.676 85.8309 300.044 85.6767 300.333 85.4391C300.609 85.1869 300.763 84.8533 300.764 84.5062C300.766 84.159 300.615 83.8243 300.342 83.5703Z" fill="#7E57C2"/>
<path d="M300.762 85.8408C300.695 85.8408 300.619 85.6218 300.392 85.3225C300.118 84.9212 299.709 84.6025 299.22 84.4093C298.73 84.2161 298.184 84.1577 297.656 84.2421C297.243 84.2932 296.99 84.3954 296.965 84.3443C296.94 84.2932 297.133 84.118 297.588 83.9793C298.183 83.8133 298.828 83.8445 299.398 84.0669C299.974 84.289 300.429 84.694 300.67 85.1984C300.847 85.578 300.821 85.8335 300.762 85.8408Z" fill="#263238"/>
<path d="M283.577 86.7455C283.577 86.7455 283.821 87.1105 283.501 87.6653C283.32 87.9973 283.002 88.2579 282.609 88.3953C282.364 88.4714 282.102 88.4971 281.843 88.4705C281.584 88.4439 281.336 88.3657 281.119 88.242C280.897 88.1252 280.71 87.9656 280.571 87.7757C280.432 87.5857 280.346 87.3706 280.319 87.147C280.293 86.7864 280.416 86.4296 280.664 86.1396C281.102 85.6578 281.59 85.6432 281.59 85.687C281.59 85.7308 281.22 85.8549 280.925 86.2929C280.754 86.5383 280.683 86.826 280.723 87.1105C280.754 87.2771 280.827 87.4358 280.936 87.5757C281.045 87.7156 281.188 87.8333 281.354 87.9208C281.519 88.0119 281.703 88.072 281.896 88.0972C282.089 88.1224 282.286 88.112 282.474 88.0668C282.785 87.9703 283.053 87.7916 283.24 87.5558C283.569 87.1032 283.51 86.7455 283.577 86.7455Z" fill="#7E57C2"/>
<path d="M280.74 86.4613C280.782 86.4613 280.74 86.7095 280.345 86.8701C280.15 86.9401 279.937 86.9604 279.729 86.9287C279.522 86.8969 279.33 86.8143 279.175 86.6907C279.02 86.5672 278.909 86.4077 278.855 86.2312C278.801 86.0547 278.807 85.8686 278.871 85.6948C278.954 85.4974 279.111 85.3301 279.317 85.2203C279.663 85.0378 279.924 85.1108 279.915 85.1546C279.907 85.1984 279.713 85.2495 279.503 85.432C279.399 85.5442 279.336 85.6804 279.321 85.8235C279.307 85.9666 279.341 86.1104 279.42 86.2366C279.499 86.3629 279.62 86.4661 279.766 86.5334C279.912 86.6006 280.079 86.6288 280.244 86.6146C280.53 86.5635 280.681 86.4321 280.74 86.4613Z" fill="#7E57C2"/>
<path d="M289.994 151.292C289.994 151.292 310.841 152.344 323.168 152.438C332.708 152.519 336.969 150.321 338.872 145C340.471 140.539 337.036 131.977 337.036 131.977C330.578 131.977 326.595 132.78 322.444 134.466L323.547 138.379L289.935 140.89L289.994 151.292Z" fill="#FFBE9D"/>
<path d="M330.553 142.554C329.648 141.535 328.592 140.624 327.412 139.846C326.146 139.174 324.78 138.654 323.354 138.298C323.803 138.242 324.261 138.277 324.692 138.401C325.752 138.618 326.756 139.001 327.656 139.532C328.558 140.065 329.337 140.738 329.955 141.518C330.426 142.116 330.603 142.532 330.553 142.554Z" fill="#EB996E"/>
<path d="M282.365 134.437C282.365 134.437 275.915 135.78 271.175 138.524L276.227 150.394C277.911 154.293 283.055 156.234 287.173 154.19C293.513 151.044 295.753 141.875 295.753 141.875L302.716 115.683L291.172 109.412L282.407 134.437" fill="#FFBE9D"/>
<path d="M291.131 109.412L291.602 100.798L289.017 92.0382C288.874 91.5564 288.807 90.9505 289.262 90.6585C289.487 90.5086 289.765 90.4311 290.049 90.439C290.333 90.447 290.605 90.5401 290.819 90.7023C291.518 91.3301 294.886 98.9878 294.886 98.9878C294.886 98.9878 299.997 96.3306 300.906 96.1992C301.816 96.0678 302.952 98.4549 303.028 98.6374C303.062 99.1723 303.062 99.7085 303.028 100.243C303.028 100.243 306.186 100.324 306.472 100.696C306.702 101.457 306.823 102.239 306.834 103.025C306.834 103.025 308.173 103.397 308.383 104.273C308.594 105.149 309.032 106.594 308.383 106.916C307.735 107.237 306.421 107.865 306.421 107.865C306.421 107.865 305.891 112.332 305.748 112.741C305.605 113.15 302.649 115.661 302.649 115.661L291.131 109.412Z" fill="#FFBE9D"/>
<path d="M280.387 154.366C280.387 154.366 280.698 154.526 281.355 154.709C282.315 154.97 283.331 155.04 284.327 154.913C285.927 154.715 287.426 154.116 288.638 153.19C290.241 151.93 291.595 150.45 292.646 148.81C293.265 147.846 293.787 146.838 294.204 145.795C294.642 144.648 295.004 143.481 295.29 142.299C295.947 139.839 296.663 137.189 297.42 134.371C298.936 128.743 300.637 122.45 302.472 115.668V115.617H302.514C303.095 115.121 303.676 114.617 304.257 114.091C304.544 113.829 304.83 113.566 305.099 113.296C305.234 113.157 305.377 113.018 305.487 112.88C305.572 112.742 305.621 112.59 305.63 112.434C305.857 110.974 306.034 109.463 306.219 107.938V107.843L306.32 107.799L307.929 107.018C308.046 106.952 308.232 106.879 308.307 106.821C308.388 106.757 308.441 106.673 308.459 106.58C308.498 106.338 308.498 106.092 308.459 105.85C308.377 105.314 308.251 104.785 308.08 104.266C307.794 103.812 307.313 103.473 306.741 103.324L306.598 103.28V103.156C306.598 102.733 306.548 102.295 306.489 101.864C306.466 101.648 306.429 101.434 306.379 101.222C306.36 101.128 306.326 101.037 306.278 100.951C306.278 100.9 306.278 100.951 306.228 100.908C306.182 100.887 306.134 100.87 306.085 100.857C305.072 100.665 304.039 100.565 303.003 100.557H302.784V100.367C302.784 99.9148 302.784 99.4111 302.784 98.9074C302.749 98.7356 302.681 98.5702 302.582 98.4183C302.498 98.2431 302.397 98.0752 302.296 97.9C302.098 97.5619 301.867 97.2394 301.605 96.9364C301.486 96.7952 301.341 96.6719 301.176 96.5714C301.115 96.5267 301.04 96.4986 300.96 96.4908C300.881 96.483 300.8 96.4958 300.729 96.5276C300.322 96.6629 299.925 96.8214 299.542 97.0021C297.976 97.7321 296.444 98.4621 294.945 99.2505L294.726 99.3673L294.633 99.1629C293.842 97.4328 293.05 95.7246 292.276 94.0529C291.888 93.2134 291.51 92.3739 291.122 91.549C291.062 91.3642 290.944 91.1977 290.78 91.0686C290.616 90.9395 290.414 90.853 290.196 90.819C289.995 90.7611 289.777 90.7643 289.578 90.8279C289.379 90.8916 289.211 91.012 289.101 91.1694C288.996 91.326 288.952 91.5077 288.975 91.6877C288.975 91.8483 289.093 92.0965 289.144 92.2936C289.278 92.717 289.405 93.1331 289.531 93.5492C289.783 94.3887 290.028 95.2136 290.28 96.0312C290.774 97.6762 291.26 99.2822 291.737 100.849V100.9C291.568 103.898 291.409 106.77 291.257 109.514V109.5L283.586 131.137L281.422 137.159C281.17 137.838 280.976 138.371 280.841 138.744C280.707 139.116 280.622 139.276 280.622 139.276C280.622 139.276 280.665 139.087 280.782 138.729L281.313 137.13C281.801 135.721 282.5 133.685 283.384 131.086C285.203 125.859 287.788 118.398 290.912 109.405V109.441C291.058 106.706 291.206 103.835 291.358 100.827V100.878C290.878 99.3089 290.381 97.7029 289.884 96.0677L289.127 93.5857C289 93.1696 288.874 92.7462 288.739 92.3301C288.667 92.1116 288.608 91.8898 288.563 91.6658C288.531 91.4124 288.593 91.157 288.739 90.9358C288.895 90.7081 289.136 90.5331 289.421 90.4394C289.704 90.3677 290.003 90.3596 290.29 90.4158C290.578 90.472 290.844 90.5907 291.063 90.7606C291.275 90.9325 291.431 91.1487 291.518 91.3884L292.671 93.8923C293.455 95.5713 294.238 97.2795 295.038 99.0023L294.726 98.9074C296.233 98.1336 297.749 97.3598 299.349 96.6371C299.753 96.4539 300.169 96.2906 300.595 96.148C300.728 96.1001 300.873 96.0825 301.016 96.0969C301.16 96.115 301.298 96.1598 301.42 96.2283C301.623 96.3545 301.802 96.5071 301.95 96.6809C302.232 97.0004 302.477 97.3426 302.683 97.7029C302.792 97.8854 302.893 98.0606 302.986 98.2431C303.106 98.4364 303.186 98.6464 303.222 98.8636C303.222 99.3819 303.222 99.8637 303.222 100.324L303.011 100.127C304.094 100.133 305.172 100.241 306.228 100.448C306.3 100.47 306.371 100.497 306.438 100.528C306.531 100.572 306.607 100.638 306.657 100.718C306.722 100.836 306.771 100.961 306.8 101.09C306.851 101.324 306.884 101.543 306.918 101.769C306.969 102.214 307.002 102.652 307.028 103.09L306.876 102.915C307.22 103.003 307.541 103.15 307.817 103.348C308.093 103.547 308.32 103.792 308.484 104.069C308.669 104.623 308.804 105.189 308.888 105.762C308.947 106.054 308.947 106.353 308.888 106.645C308.852 106.822 308.744 106.983 308.585 107.098C308.447 107.178 308.304 107.251 308.156 107.317L306.556 108.04L306.666 107.901C306.472 109.427 306.295 110.923 306.059 112.405L306.009 112.69C305.989 112.805 305.934 112.914 305.849 113.004C305.725 113.164 305.587 113.315 305.436 113.456C305.15 113.734 304.864 114.004 304.594 114.267C304.013 114.792 303.432 115.296 302.843 115.792L302.902 115.705C301.049 122.479 299.332 128.772 297.791 134.4C297.025 137.211 296.292 139.86 295.618 142.313C295.33 143.504 294.959 144.68 294.507 145.832C294.074 146.884 293.539 147.902 292.907 148.876C291.832 150.537 290.446 152.032 288.807 153.3C287.558 154.232 286.021 154.826 284.386 155.008C283.369 155.126 282.333 155.036 281.363 154.745C281.117 154.667 280.877 154.571 280.648 154.46L280.387 154.366Z" fill="#EB996E"/>
<path d="M303.036 100.266C303.036 100.317 302.75 100.346 302.304 100.361C301.737 100.37 301.173 100.429 300.62 100.536C300.086 100.65 299.594 100.878 299.189 101.2C298.885 101.448 298.751 101.66 298.683 101.638C298.616 101.616 298.683 101.354 298.961 101.018C299.353 100.593 299.899 100.294 300.51 100.171C301.1 100.045 301.712 100.02 302.312 100.098C302.767 100.149 303.036 100.215 303.036 100.266Z" fill="#EB996E"/>
<path d="M300.594 100.346C300.485 100.309 300.476 100.083 300.594 99.8421C300.712 99.6012 300.88 99.4333 300.99 99.4698C301.099 99.5063 301.116 99.7326 300.99 99.9735C300.864 100.214 300.678 100.382 300.594 100.346Z" fill="#EB996E"/>
<path d="M306.977 102.996C306.16 103.215 305.306 103.317 304.451 103.295C304.182 103.288 303.914 103.336 303.671 103.436C303.428 103.537 303.216 103.686 303.053 103.872C302.834 104.171 302.91 104.42 302.843 104.434C302.775 104.449 302.573 104.193 302.784 103.755C302.9 103.509 303.111 103.305 303.382 103.179C303.693 103.03 304.038 102.941 304.392 102.916C305.252 102.802 306.129 102.829 306.977 102.996Z" fill="#EB996E"/>
<path d="M306.421 105.624C306.539 105.624 306.607 106.164 306.573 106.829C306.539 107.493 306.413 108.018 306.295 108.018C306.177 108.018 306.101 107.471 306.135 106.807C306.169 106.142 306.295 105.617 306.421 105.624Z" fill="#EB996E"/>
<path d="M309.915 125.283L310.664 123.049C310.699 122.947 310.763 122.854 310.851 122.78C310.94 122.706 311.048 122.653 311.167 122.627C311.286 122.6 311.411 122.601 311.53 122.629C311.648 122.657 311.756 122.711 311.843 122.786L312.828 123.655L313.435 121.545C313.47 121.424 313.548 121.314 313.658 121.232C313.768 121.15 313.904 121.099 314.048 121.086C314.193 121.073 314.338 121.099 314.465 121.161C314.591 121.222 314.693 121.315 314.757 121.429L316.129 123.925L309.915 125.283Z" fill="white"/>
<path d="M316.146 124.881C315.204 125.276 314.204 125.556 313.174 125.713C312.177 125.995 311.139 126.153 310.092 126.18C312.03 125.505 314.068 125.068 316.146 124.881Z" fill="white"/>
<path d="M266.072 112.42C266.072 112.42 265.761 112.697 265.323 113.289C264.735 114.131 264.349 115.067 264.186 116.041C263.946 117.491 263.896 118.96 264.035 120.421C264.127 122.078 264.279 123.888 264.515 125.786C264.914 129.028 265.507 132.249 266.291 135.437C266.586 136.663 266.856 137.627 267.041 138.357C267.125 138.663 267.201 138.919 267.26 139.138C267.319 139.357 267.327 139.415 267.327 139.415C267.327 139.415 267.285 139.328 267.226 139.153C267.167 138.977 267.074 138.671 266.982 138.371C266.771 137.693 266.485 136.714 266.14 135.488C265.321 132.301 264.711 129.077 264.313 125.83C264.077 123.932 263.934 122.114 263.85 120.457C263.722 118.996 263.784 117.527 264.035 116.077C264.216 115.09 264.628 114.146 265.247 113.303C265.475 112.978 265.753 112.681 266.072 112.42Z" fill="white"/>
<path d="M283.796 102.477L283.603 102.565L283.047 102.798C282.567 102.995 281.868 103.287 281.035 103.689C278.862 104.739 276.751 105.885 274.711 107.12C272.303 108.58 270.173 109.908 268.615 110.872L266.771 112.003L266.258 112.303C266.2 112.342 266.138 112.377 266.072 112.405C266.12 112.356 266.177 112.314 266.241 112.281L266.729 111.96L268.539 110.784C270.08 109.799 272.202 108.426 274.61 106.996C276.654 105.755 278.779 104.619 280.976 103.594C281.818 103.207 282.525 102.93 283.022 102.747L283.586 102.543C283.754 102.492 283.754 102.47 283.796 102.477Z" fill="white"/>
<path d="M323.951 107.23C323.898 107.204 323.85 107.172 323.808 107.135L323.429 106.85C322.96 106.507 322.468 106.187 321.956 105.894C320.246 104.949 318.433 104.154 316.542 103.521C314.656 102.874 312.731 102.318 310.774 101.857C310.016 101.675 309.41 101.543 308.98 101.456L308.5 101.346C308.442 101.336 308.385 101.318 308.332 101.295H308.509L308.997 101.375C309.427 101.448 310.041 101.565 310.799 101.733C312.775 102.165 314.715 102.709 316.609 103.361C318.511 103.994 320.327 104.806 322.023 105.784C322.729 106.199 323.376 106.684 323.951 107.23Z" fill="white"/>
<path d="M284.032 162.951C283.918 162.933 283.808 162.901 283.704 162.856C283.412 162.745 283.13 162.613 282.862 162.462C282.408 162.226 282.013 161.915 281.698 161.547C281.383 161.179 281.155 160.76 281.026 160.316C280.795 159.418 280.911 158.479 281.355 157.644C281.483 157.384 281.647 157.139 281.843 156.914C281.978 156.761 282.071 156.688 282.079 156.695C281.849 157.006 281.644 157.331 281.464 157.666C281.073 158.486 280.982 159.391 281.203 160.257C281.444 161.113 282.045 161.86 282.887 162.352C283.586 162.79 284.049 162.922 284.032 162.951Z" fill="white"/>
<path d="M281.354 155.045C281.534 155.335 281.667 155.644 281.75 155.965C281.882 156.272 281.961 156.594 281.986 156.921C281.795 156.638 281.658 156.33 281.582 156.009C281.444 155.701 281.367 155.375 281.354 155.045Z" fill="white"/>
<path d="M292.738 318.718L318.419 318.608L317.956 241.63L317.712 163.322L282.912 162.936L276.656 173.156C274.096 177.264 272.464 181.759 271.848 186.398C271.427 189.946 274.492 201.48 275.553 204.4L285.126 230.723L292.738 318.718Z" fill="#263238"/>
<path d="M325.248 163.418L353.472 230.118C355.144 234.415 355.699 238.98 355.098 243.486C354.497 247.991 352.754 252.326 349.994 256.179L317.224 311.659L298.801 291.671L326.216 242.031L302.051 208.05L306.118 163.52L317.502 163.359L325.248 163.418Z" fill="#263238"/>
<path d="M315.371 185.763C315.371 185.763 315.371 185.879 315.371 186.106C315.371 186.332 315.413 186.682 315.447 187.113C315.506 188.011 315.582 189.303 315.683 190.975C315.876 194.355 316.146 199.209 316.525 205.203C316.904 211.196 317.224 218.343 317.645 226.3C317.847 230.271 318.066 234.439 318.284 238.761C318.444 240.951 318.377 243.141 318.402 245.331C318.428 247.521 318.402 249.827 318.402 252.12C318.402 270.465 318.47 287.072 318.495 299.11C318.495 305.11 318.495 309.972 318.495 313.352C318.495 315.024 318.495 316.323 318.495 317.228C318.495 317.652 318.495 317.958 318.495 318.236C318.495 318.513 318.495 318.579 318.495 318.579C318.495 318.579 318.495 318.462 318.495 318.236V317.228C318.495 316.323 318.495 315.038 318.444 313.352C318.444 309.972 318.377 305.118 318.327 299.117C318.268 287.079 318.192 270.472 318.108 252.127C318.108 249.835 318.108 247.572 318.108 245.338C318.108 243.104 318.158 240.9 317.998 238.768C317.788 234.454 317.577 230.285 317.383 226.314C316.996 218.372 316.643 211.225 316.356 205.21C316.07 199.195 315.859 194.362 315.699 190.982C315.632 189.318 315.582 188.018 315.548 187.113C315.548 186.682 315.548 186.383 315.548 186.106C315.548 185.828 315.371 185.763 315.371 185.763Z" fill="#455A64"/>
<path d="M314.723 164.731C314.821 164.966 314.881 165.212 314.9 165.461C314.992 165.929 315.093 166.608 315.211 167.454C315.43 169.141 315.666 171.484 315.8 174.075C315.935 176.667 315.944 179.018 315.901 180.718C315.901 181.565 315.843 182.259 315.8 182.733C315.809 182.98 315.775 183.226 315.699 183.463C315.593 182.551 315.557 181.634 315.59 180.718C315.59 179.018 315.497 176.682 315.363 174.09C315.228 171.499 315.043 169.17 314.9 167.52C314.78 166.594 314.721 165.663 314.723 164.731Z" fill="#455A64"/>
<path d="M309.065 166.236C309.107 166.287 308.628 166.476 308.493 167.068C308.455 167.228 308.465 167.394 308.523 167.55C308.58 167.706 308.683 167.847 308.821 167.958C308.988 168.093 309.195 168.183 309.419 168.218C309.643 168.253 309.874 168.231 310.084 168.155C310.286 168.065 310.454 167.928 310.571 167.759C310.687 167.59 310.746 167.396 310.741 167.199C310.733 167.036 310.677 166.877 310.579 166.738C310.48 166.598 310.341 166.483 310.177 166.403C309.834 166.26 309.452 166.202 309.074 166.236C309.074 166.236 309.158 166.141 309.377 166.082C309.693 166.015 310.025 166.044 310.32 166.163C310.555 166.247 310.758 166.387 310.907 166.566C311.056 166.746 311.144 166.957 311.162 167.177C311.195 167.449 311.13 167.723 310.974 167.961C310.818 168.199 310.581 168.388 310.294 168.502C310.008 168.617 309.687 168.651 309.378 168.599C309.068 168.547 308.785 168.412 308.569 168.214C308.39 168.06 308.263 167.866 308.202 167.653C308.141 167.441 308.148 167.218 308.223 167.009C308.308 166.736 308.498 166.497 308.762 166.33C308.931 166.228 309.057 166.214 309.065 166.236Z" fill="#455A64"/>
<path d="M295.593 164.914C295.717 165.144 295.794 165.391 295.821 165.644C295.956 166.299 295.982 166.968 295.896 167.63C295.775 168.615 295.447 169.572 294.928 170.455C294.301 171.553 293.373 172.5 292.225 173.214C291.077 173.928 289.744 174.387 288.344 174.55C287.223 174.695 286.081 174.658 284.976 174.441C284.228 174.3 283.508 174.066 282.837 173.747C282.583 173.643 282.35 173.505 282.146 173.338C283.077 173.701 284.048 173.983 285.043 174.178C286.241 174.394 287.477 174.392 288.673 174.173C289.87 173.954 291.002 173.522 291.996 172.904C292.991 172.287 293.827 171.498 294.452 170.586C295.077 169.674 295.477 168.66 295.627 167.608C295.726 166.711 295.715 165.808 295.593 164.914Z" fill="#455A64"/>
<path d="M328.633 171.309C328.083 171.364 327.527 171.306 327.008 171.141C325.736 170.793 324.593 170.158 323.699 169.301C322.796 168.448 322.176 167.398 321.905 166.264C321.773 165.802 321.773 165.318 321.905 164.855C321.981 164.855 321.989 165.388 322.242 166.206C322.583 167.262 323.204 168.235 324.054 169.048C324.905 169.86 325.962 170.489 327.142 170.885C328.018 171.185 328.641 171.236 328.633 171.309Z" fill="#455A64"/>
<path d="M338.661 243.214C338.239 243.631 337.735 243.98 337.171 244.243C336.58 244.568 335.936 244.815 335.26 244.973C334.409 245.169 333.512 245.148 332.675 244.915C331.204 244.434 329.944 243.566 329.071 242.433C328.67 242.007 328.339 241.535 328.086 241.031C328.54 241.407 328.952 241.82 329.315 242.265C330.209 243.293 331.417 244.084 332.801 244.55C333.508 244.713 334.246 244.75 334.969 244.659C335.693 244.567 336.388 244.349 337.011 244.017C337.543 243.722 338.094 243.454 338.661 243.214Z" fill="#455A64"/>
<path d="M332.228 247.47C331.233 246.576 330.344 245.598 329.576 244.55C328.69 243.574 327.918 242.525 327.269 241.418C328.27 242.308 329.162 243.287 329.929 244.338C330.822 245.308 331.592 246.358 332.228 247.47Z" fill="#455A64"/>
<path d="M289.084 188.34C288.966 188.376 288.672 187.96 288.411 187.398C288.15 186.836 288.04 186.361 288.15 186.318C288.259 186.274 288.562 186.697 288.815 187.259C289.067 187.821 289.194 188.34 289.084 188.34Z" fill="#FAFAFA"/>
<path d="M305.385 190.369C305.259 190.369 305.166 190.011 305.166 189.566C305.166 189.121 305.259 188.756 305.385 188.756C305.511 188.756 305.604 189.121 305.604 189.566C305.604 190.011 305.503 190.369 305.385 190.369Z" fill="#FAFAFA"/>
<path d="M298.683 198.049C298.566 198.049 298.431 197.611 298.389 197.048C298.347 196.486 298.389 196.034 298.523 196.026C298.658 196.019 298.784 196.464 298.827 197.027C298.869 197.589 298.801 198.041 298.683 198.049Z" fill="#FAFAFA"/>
<path d="M286.44 203.67C286.339 203.735 285.994 203.465 285.539 203.188C285.085 202.911 284.697 202.699 284.697 202.597C284.697 202.494 285.253 202.553 285.767 202.874C286.28 203.195 286.541 203.67 286.44 203.67Z" fill="#FAFAFA"/>
<path d="M308.021 210.831C307.92 210.773 308.021 210.459 308.307 210.101C308.593 209.744 308.854 209.539 308.955 209.598C309.056 209.656 308.955 209.977 308.669 210.328C308.383 210.678 308.122 210.89 308.021 210.831Z" fill="#FAFAFA"/>
<path d="M294.7 212.854C294.582 212.854 294.481 212.248 294.481 211.511C294.481 210.773 294.582 210.16 294.7 210.16C294.818 210.16 294.919 210.766 294.919 211.511C294.919 212.255 294.793 212.854 294.7 212.854Z" fill="#FAFAFA"/>
<path d="M290.339 221.044C290.272 221.125 289.834 220.957 289.362 220.657C288.891 220.358 288.52 220.052 288.63 219.964C288.739 219.876 289.143 220.052 289.615 220.351C290.086 220.65 290.415 220.957 290.339 221.044Z" fill="#FAFAFA"/>
<path d="M303.827 223.891C303.878 223.986 303.609 224.183 303.221 224.336C302.834 224.49 302.48 224.526 302.43 224.431C302.379 224.336 302.657 224.139 303.044 223.986C303.432 223.833 303.785 223.796 303.827 223.891Z" fill="#FAFAFA"/>
<path d="M294.7 237.25C294.599 237.294 294.161 236.732 293.732 235.988C293.302 235.243 293.041 234.601 293.151 234.528C293.26 234.455 293.698 235.046 294.119 235.79C294.54 236.535 294.776 237.17 294.7 237.25Z" fill="#FAFAFA"/>
<path d="M309.579 236.009C309.469 235.958 309.663 235.469 310 234.907C310.336 234.344 310.715 233.936 310.842 233.987C310.968 234.038 310.757 234.527 310.412 235.089C310.067 235.651 309.68 236.06 309.579 236.009Z" fill="#FAFAFA"/>
<path d="M303.053 247.317C302.927 247.317 302.944 246.725 302.809 246.039C302.674 245.353 302.472 244.806 302.59 244.754C302.708 244.703 303.112 245.222 303.247 245.981C303.382 246.74 303.171 247.339 303.053 247.317Z" fill="#FAFAFA"/>
<path d="M296.064 253.777C295.98 253.85 295.559 253.572 295.13 253.164C294.7 252.755 294.422 252.368 294.515 252.295C294.608 252.222 295.02 252.499 295.45 252.908C295.879 253.317 296.157 253.704 296.064 253.777Z" fill="#FAFAFA"/>
<path d="M313.023 256.23C312.938 256.157 313.25 255.763 313.721 255.347C314.193 254.931 314.631 254.661 314.723 254.734C314.816 254.807 314.496 255.208 314.033 255.617C313.57 256.026 313.115 256.303 313.023 256.23Z" fill="#FAFAFA"/>
<path d="M303.272 265.903C303.154 265.903 303.154 265.326 303.272 264.655C303.39 263.983 303.575 263.457 303.701 263.472C303.828 263.487 303.819 264.041 303.701 264.713C303.584 265.385 303.39 265.917 303.272 265.903Z" fill="#FAFAFA"/>
<path d="M296.713 270.597C296.604 270.648 296.233 270.268 295.871 269.75C295.509 269.232 295.324 268.772 295.425 268.721C295.526 268.669 295.896 269.042 296.267 269.56C296.637 270.078 296.814 270.538 296.713 270.597Z" fill="#FAFAFA"/>
<path d="M312.517 276.517C312.593 276.605 312.163 276.977 311.557 277.349C310.951 277.722 310.42 277.955 310.344 277.868C310.269 277.78 310.707 277.408 311.304 277.035C311.902 276.663 312.449 276.437 312.517 276.517Z" fill="#FAFAFA"/>
<path d="M299.348 284.204C299.23 284.167 299.348 283.583 299.457 282.853C299.567 282.123 299.499 281.525 299.626 281.51C299.752 281.495 299.971 282.109 299.887 282.89C299.803 283.671 299.457 284.248 299.348 284.204Z" fill="#FAFAFA"/>
<path d="M304.611 295.241C304.51 295.307 304.156 295.058 303.811 294.686C303.466 294.314 303.272 293.956 303.365 293.89C303.457 293.825 303.811 294.073 304.156 294.445C304.502 294.818 304.704 295.175 304.611 295.241Z" fill="#FAFAFA"/>
<path d="M298.86 302.643C298.759 302.702 298.296 302.271 297.824 301.672C297.353 301.074 297.058 300.548 297.151 300.49C297.243 300.431 297.715 300.862 298.186 301.461C298.658 302.059 298.961 302.585 298.86 302.643Z" fill="#FAFAFA"/>
<path d="M314.698 293.351C314.589 293.314 314.597 293.044 314.698 292.752C314.799 292.46 315.026 292.241 315.144 292.277C315.262 292.314 315.245 292.584 315.144 292.883C315.043 293.183 314.816 293.394 314.698 293.351Z" fill="#FAFAFA"/>
<path d="M307.709 310.98C307.599 310.929 307.81 310.411 307.978 309.761C308.147 309.112 308.206 308.564 308.332 308.557C308.458 308.549 308.585 309.141 308.408 309.842C308.231 310.542 307.81 311.039 307.709 310.98Z" fill="#FAFAFA"/>
<path d="M312.256 198.165C312.147 198.209 311.877 197.917 311.658 197.508C311.439 197.1 311.347 196.735 311.456 196.691C311.566 196.647 311.835 196.939 312.054 197.348C312.273 197.757 312.382 198.122 312.256 198.165Z" fill="#FAFAFA"/>
<path d="M300.595 175.433C300.662 175.521 300.073 175.93 299.441 176.514C298.81 177.098 298.38 177.638 298.271 177.587C298.161 177.536 298.448 176.857 299.113 176.258C299.778 175.66 300.511 175.339 300.595 175.433Z" fill="#FAFAFA"/>
<path d="M310.976 175.2C310.85 175.2 310.656 174.784 310.361 174.287C310.066 173.791 309.797 173.382 309.89 173.309C309.982 173.236 310.437 173.557 310.732 174.112C311.026 174.667 311.085 175.141 310.976 175.2Z" fill="#FAFAFA"/>
<path d="M278.559 182.58C278.449 182.536 278.559 182.054 278.82 181.499C279.081 180.945 279.367 180.514 279.485 180.558C279.603 180.602 279.485 181.076 279.224 181.638C278.963 182.2 278.702 182.616 278.559 182.58Z" fill="#FAFAFA"/>
<path d="M279.612 193.603C279.527 193.684 279.048 193.45 278.534 193.078C278.02 192.706 277.692 192.348 277.742 192.26C277.793 192.173 278.307 192.414 278.82 192.786C279.334 193.158 279.687 193.523 279.612 193.603Z" fill="#FAFAFA"/>
<path d="M300.88 166.681C300.771 166.681 300.535 166.447 300.367 166.075C300.198 165.702 300.148 165.345 300.257 165.345C300.367 165.345 300.602 165.578 300.771 165.951C300.939 166.323 300.99 166.644 300.88 166.681Z" fill="#FAFAFA"/>
<path d="M321.248 172.068C321.13 172.068 321.139 171.608 321.248 171.09C321.358 170.571 321.577 170.163 321.695 170.184C321.813 170.206 321.804 170.652 321.695 171.17C321.585 171.688 321.366 172.09 321.248 172.068Z" fill="#FAFAFA"/>
<path d="M326.032 180.412C325.922 180.369 326.074 179.828 326.377 179.193C326.68 178.558 327.008 178.084 327.118 178.12C327.227 178.157 327.118 178.704 326.781 179.339C326.444 179.974 326.149 180.449 326.032 180.412Z" fill="#FAFAFA"/>
<path d="M322.621 187.143C322.512 187.187 322.108 186.683 321.72 186.019C321.333 185.355 321.114 184.763 321.223 184.719C321.333 184.676 321.729 185.179 322.116 185.844C322.503 186.508 322.731 187.092 322.621 187.143Z" fill="#FAFAFA"/>
<path d="M329.913 193.874C329.803 193.837 329.913 193.414 330.098 192.932C330.283 192.45 330.578 192.085 330.696 192.122C330.814 192.158 330.696 192.582 330.511 193.063C330.325 193.545 330.064 193.91 329.913 193.874Z" fill="#FAFAFA"/>
<path d="M323.395 200.465C323.294 200.524 323.033 200.326 322.823 200.034C322.612 199.742 322.511 199.45 322.621 199.392C322.73 199.334 322.974 199.531 323.193 199.83C323.412 200.129 323.496 200.414 323.395 200.465Z" fill="#FAFAFA"/>
<path d="M324.785 214.073C324.701 214.139 324.17 213.781 323.615 213.255C323.059 212.73 322.68 212.255 322.773 212.182C322.865 212.109 323.387 212.474 323.943 213C324.499 213.525 324.878 214 324.785 214.073Z" fill="#FAFAFA"/>
<path d="M333.331 206.254C333.239 206.32 332.776 205.955 332.304 205.429C331.833 204.904 331.529 204.437 331.622 204.371C331.715 204.305 332.178 204.677 332.649 205.196C333.121 205.714 333.432 206.196 333.331 206.254Z" fill="#FAFAFA"/>
<path d="M338.021 217.037C337.911 216.993 338.105 216.445 338.45 215.818C338.795 215.19 339.158 214.708 339.292 214.752C339.427 214.796 339.216 215.35 338.871 215.978C338.526 216.606 338.13 217.088 338.021 217.037Z" fill="#FAFAFA"/>
<path d="M328.052 225.913C327.942 225.964 327.555 225.562 327.016 225.132C326.477 224.701 325.98 224.402 326.031 224.292C326.081 224.183 326.721 224.38 327.311 224.854C327.9 225.329 328.153 225.862 328.052 225.913Z" fill="#FAFAFA"/>
<path d="M328.675 235.06C328.675 235.162 328.254 235.25 327.741 235.25C327.227 235.25 326.814 235.162 326.814 235.06C326.814 234.958 327.227 234.87 327.741 234.87C328.254 234.87 328.675 234.958 328.675 235.06Z" fill="#FAFAFA"/>
<path d="M338.922 232.505C338.813 232.454 339.032 231.994 339.192 231.425C339.351 230.855 339.419 230.359 339.545 230.352C339.671 230.344 339.806 230.877 339.621 231.512C339.436 232.147 339.015 232.564 338.922 232.505Z" fill="#FAFAFA"/>
<path d="M349.102 235.578C348.993 235.615 348.681 235.096 348.412 234.432C348.142 233.768 348.016 233.198 348.125 233.169C348.235 233.14 348.555 233.644 348.824 234.308C349.094 234.972 349.22 235.542 349.102 235.578Z" fill="#FAFAFA"/>
<path d="M347.477 248.134C347.376 248.083 347.637 247.47 348.058 246.762C348.479 246.054 348.9 245.521 349.026 245.572C349.152 245.623 348.875 246.236 348.445 246.937C348.016 247.638 347.586 248.2 347.477 248.134Z" fill="#FAFAFA"/>
<path d="M338.19 255.5C338.081 255.537 337.735 255.033 337.415 254.369C337.095 253.705 336.935 253.135 337.053 253.091C337.171 253.048 337.508 253.559 337.82 254.223C338.131 254.887 338.3 255.5 338.19 255.5Z" fill="#FAFAFA"/>
<path d="M327.9 258.354C327.9 258.456 327.547 258.544 327.117 258.544C326.688 258.544 326.343 258.456 326.343 258.354C326.343 258.252 326.696 258.164 327.117 258.164C327.538 258.164 327.9 258.252 327.9 258.354Z" fill="#FAFAFA"/>
<path d="M333.794 270.1C333.685 270.1 333.449 269.698 333.272 269.143C333.095 268.589 333.062 268.107 333.18 268.085C333.298 268.063 333.525 268.486 333.702 269.041C333.878 269.596 333.912 270.041 333.794 270.1Z" fill="#FAFAFA"/>
<path d="M326.343 266.158C326.242 266.107 326.343 265.764 326.621 265.392C326.899 265.019 327.177 264.764 327.278 264.815C327.379 264.866 327.278 265.217 327 265.589C326.722 265.961 326.452 266.217 326.343 266.158Z" fill="#FAFAFA"/>
<path d="M326.192 279.086C326.074 279.086 325.905 278.597 325.821 277.962C325.737 277.327 325.762 276.809 325.88 276.794C325.998 276.78 326.166 277.283 326.25 277.918C326.335 278.554 326.309 279.072 326.192 279.086Z" fill="#FAFAFA"/>
</svg>
